<?xml version="1.0" encoding="UTF-8"?>
<svg width="101.57pt" height="31.419pt" version="1.1" viewBox="1873.2 1483.2 80.954 25.041" xmlns="http://www.w3.org/2000/svg" xmlns:xlink="http://www.w3.org/1999/xlink">
  <defs>
    <path id="j" d="m2.0945-2.7273c0-0.31636-0.26182-0.57818-0.57818-0.57818s-0.57818 0.26182-0.57818 0.57818 0.26182 0.57818 0.57818 0.57818 0.57818-0.26182 0.57818-0.57818z"/>
    <path id="g" d="m3.6109 2.6182c0-0.032727 0-0.054545-0.18545-0.24-1.3636-1.3746-1.7127-3.4364-1.7127-5.1054 0-1.8982 0.41454-3.7964 1.7564-5.16 0.14182-0.13091 0.14182-0.15273 0.14182-0.18545 0-0.076364-0.043636-0.10909-0.10909-0.10909-0.10909 0-1.0909 0.74182-1.7345 2.1273-0.55636 1.2-0.68727 2.4109-0.68727 3.3273 0 0.85091 0.12 2.1709 0.72 3.4036 0.65454 1.3418 1.5927 2.0509 1.7018 2.0509 0.065454 0 0.10909-0.032727 0.10909-0.10909z"/>
    <path id="f" d="m3.1527-2.7273c0-0.85091-0.12-2.1709-0.72-3.4036-0.65454-1.3418-1.5927-2.0509-1.7018-2.0509-0.065454 0-0.10909 0.043636-0.10909 0.10909 0 0.032727 0 0.054545 0.20727 0.25091 1.0691 1.08 1.6909 2.8145 1.6909 5.0945 0 1.8654-0.40364 3.7854-1.7564 5.16-0.14182 0.13091-0.14182 0.15273-0.14182 0.18545 0 0.065454 0.043636 0.10909 0.10909 0.10909 0.10909 0 1.0909-0.74182 1.7345-2.1273 0.55636-1.2 0.68727-2.4109 0.68727-3.3273z"/>
    <path id="e" d="m4.4618-2.5091h3.0436c0.15273 0 0.36 0 0.36-0.21818s-0.20727-0.21818-0.36-0.21818h-3.0436v-3.0545c0-0.15273 0-0.36-0.21818-0.36s-0.21818 0.20727-0.21818 0.36v3.0545h-3.0545c-0.15273 0-0.36 0-0.36 0.21818s0.20727 0.21818 0.36 0.21818h3.0545v3.0545c0 0.15273 0 0.36 0.21818 0.36s0.21818-0.20727 0.21818-0.36v-3.0545z"/>
    <path id="a" d="m5.0182-3.4909c0-0.87273-0.054545-1.7454-0.43636-2.5527-0.50182-1.0473-1.3964-1.2218-1.8545-1.2218-0.65454 0-1.4509 0.28364-1.8982 1.2982-0.34909 0.75273-0.40364 1.6036-0.40364 2.4764 0 0.81818 0.043636 1.8 0.49091 2.6291 0.46909 0.88364 1.2654 1.1018 1.8 1.1018 0.58909 0 1.4182-0.22909 1.8982-1.2654 0.34909-0.75273 0.40364-1.6036 0.40364-2.4654zm-2.3018 3.4909c-0.42545 0-1.0691-0.27273-1.2654-1.32-0.12-0.65454-0.12-1.6582-0.12-2.3018 0-0.69818 0-1.4182 0.087273-2.0073 0.20727-1.2982 1.0254-1.3964 1.2982-1.3964 0.36 0 1.08 0.19636 1.2873 1.2764 0.10909 0.61091 0.10909 1.44 0.10909 2.1273 0 0.81818 0 1.56-0.12 2.2582-0.16364 1.0364-0.78545 1.3636-1.2764 1.3636z"/>
    <path id="d" d="m3.2073-6.9818c0-0.26182 0-0.28364-0.25091-0.28364-0.67636 0.69818-1.6364 0.69818-1.9854 0.69818v0.33818c0.21818 0 0.86182 0 1.4291-0.28364v5.6509c0 0.39273-0.032727 0.52364-1.0146 0.52364h-0.34909v0.33818c0.38182-0.032727 1.3309-0.032727 1.7673-0.032727s1.3854 0 1.7673 0.032727v-0.33818h-0.34909c-0.98182 0-1.0146-0.12-1.0146-0.52364v-6.12z"/>
    <path id="c" d="m3.3054-3.5454h1.0582c0.81818 0 0.90545 0.17454 0.90545 0.49091 0 0.076364 0 0.20727-0.076364 0.53454-0.021818 0.054545-0.032727 0.098182-0.032727 0.12 0 0.087273 0.065454 0.13091 0.13091 0.13091 0.10909 0 0.10909-0.032727 0.16364-0.22909l0.6-2.3673c0.032727-0.12 0.032727-0.14182 0.032727-0.17454 0-0.021818-0.021818-0.12-0.13091-0.12s-0.12 0.054545-0.16364 0.22909c-0.22909 0.85091-0.48 1.0473-1.4073 1.0473h-0.99273l0.69818-2.7709c0.098182-0.38182 0.10909-0.42545 0.58909-0.42545h1.44c1.3418 0 1.5927 0.36 1.5927 1.2 0 0.25091 0 0.29454-0.032727 0.58909-0.021818 0.14182-0.021818 0.16364-0.021818 0.19636 0 0.054545 0.032727 0.13091 0.13091 0.13091 0.12 0 0.13091-0.065454 0.15273-0.27273l0.21818-1.8873c0.032727-0.29454-0.021818-0.29454-0.29454-0.29454h-5.3454c-0.21818 0-0.32727 0-0.32727 0.21818 0 0.12 0.098182 0.12 0.30545 0.12 0.40364 0 0.70909 0 0.70909 0.19636 0 0.043636 0 0.065454-0.054545 0.26182l-1.44 5.7709c-0.10909 0.42545-0.13091 0.51273-0.99273 0.51273-0.18545 0-0.30545 0-0.30545 0.20727 0 0.13091 0.13091 0.13091 0.16364 0.13091 0.31636 0 1.1236-0.032727 1.44-0.032727 0.36 0 1.2654 0.032727 1.6254 0.032727 0.098182 0 0.22909 0 0.22909-0.20727 0-0.087273-0.065454-0.10909-0.065454-0.12-0.032727-0.010909-0.054545-0.010909-0.30545-0.010909-0.24 0-0.29454 0-0.56727-0.021818-0.31636-0.032727-0.34909-0.076364-0.34909-0.21818 0-0.021818 0-0.087273 0.043636-0.25091l0.67636-2.7164z"/>
    <path id="i" d="m8.2473-6.3054c0.10909-0.43636 0.30545-0.77454 1.1782-0.80727 0.054545 0 0.18545-0.010909 0.18545-0.21818 0-0.010909 0-0.12-0.14182-0.12-0.36 0-0.74182 0.032727-1.1018 0.032727-0.37091 0-0.75273-0.032727-1.1127-0.032727-0.065454 0-0.19636 0-0.19636 0.21818 0 0.12 0.10909 0.12 0.19636 0.12 0.62182 0.010909 0.74182 0.24 0.74182 0.48 0 0.032727-0.021818 0.19636-0.032727 0.22909l-1.2218 4.8545-2.4109-5.6945c-0.087273-0.19636-0.098182-0.20727-0.34909-0.20727h-1.4618c-0.21818 0-0.31636 0-0.31636 0.21818 0 0.12 0.098182 0.12 0.30545 0.12 0.054545 0 0.74182 0 0.74182 0.098182l-1.4618 5.8582c-0.10909 0.43636-0.29454 0.78545-1.1782 0.81818-0.065454 0-0.18545 0.010909-0.18545 0.21818 0 0.076364 0.054545 0.12 0.14182 0.12 0.34909 0 0.73091-0.032727 1.0909-0.032727 0.37091 0 0.76364 0.032727 1.1236 0.032727 0.054545 0 0.19636 0 0.19636-0.21818 0-0.10909-0.098182-0.12-0.21818-0.12-0.63273-0.021818-0.72-0.26182-0.72-0.48 0-0.076364 0.010909-0.13091 0.043636-0.25091l1.44-5.76c0.043636 0.065454 0.043636 0.087273 0.098182 0.19636l2.7164 6.4254c0.076364 0.18545 0.10909 0.20727 0.20727 0.20727 0.12 0 0.12-0.032727 0.17454-0.22909l1.5273-6.0764z"/>
    <path id="b" d="m3.3054-3.4473h1.8545c1.5491 0 3.0654-1.1346 3.0654-2.3564 0-0.84-0.72-1.6473-2.1491-1.6473h-3.5345c-0.20727 0-0.32727 0-0.32727 0.20727 0 0.13091 0.098182 0.13091 0.31636 0.13091 0.14182 0 0.33818 0.010909 0.46909 0.021818 0.17454 0.021818 0.24 0.054545 0.24 0.17454 0 0.043636-0.010909 0.076364-0.043636 0.20727l-1.4618 5.8582c-0.10909 0.42545-0.13091 0.51273-0.99273 0.51273-0.18545 0-0.30545 0-0.30545 0.20727 0 0.13091 0.13091 0.13091 0.16364 0.13091 0.30545 0 1.08-0.032727 1.3854-0.032727 0.22909 0 0.46909 0.010909 0.69818 0.010909 0.24 0 0.48 0.021818 0.70909 0.021818 0.076364 0 0.21818 0 0.21818-0.21818 0-0.12-0.098182-0.12-0.30545-0.12-0.40364 0-0.70909 0-0.70909-0.19636 0-0.065454 0.021818-0.12 0.032727-0.18545l0.67636-2.7273zm0.78545-3.2509c0.098182-0.38182 0.12-0.41454 0.58909-0.41454h1.0473c0.90545 0 1.4836 0.29454 1.4836 1.0473 0 0.42545-0.21818 1.3636-0.64364 1.7564-0.54545 0.49091-1.2 0.57818-1.68 0.57818h-1.5382l0.74182-2.9673z"/>
    <path id="h" d="m4.6582-6.6218c0.076364-0.30545 0.12-0.37091 0.25091-0.40364 0.098182-0.021818 0.45818-0.021818 0.68727-0.021818 1.1018 0 1.5927 0.043636 1.5927 0.89454 0 0.16364-0.043636 0.58909-0.087273 0.87273-0.010909 0.043636-0.032727 0.17454-0.032727 0.20727 0 0.065454 0.032727 0.14182 0.13091 0.14182 0.12 0 0.14182-0.087273 0.16364-0.25091l0.29454-1.8982c0.010909-0.043636 0.021818-0.15273 0.021818-0.18545 0-0.12-0.10909-0.12-0.29454-0.12h-6.0545c-0.26182 0-0.27273 0.010909-0.34909 0.21818l-0.65454 1.92c-0.010909 0.021818-0.065454 0.17454-0.065454 0.19636 0 0.065454 0.054545 0.12 0.13091 0.12 0.10909 0 0.12-0.054545 0.18545-0.22909 0.58909-1.6909 0.87273-1.8873 2.4873-1.8873h0.42545c0.30545 0 0.30545 0.043636 0.30545 0.13091 0 0.065454-0.032727 0.19636-0.043636 0.22909l-1.4618 5.8254c-0.098182 0.40364-0.13091 0.52364-1.2982 0.52364-0.39273 0-0.45818 0-0.45818 0.20727 0 0.13091 0.12 0.13091 0.18545 0.13091 0.29454 0 0.6-0.021818 0.89454-0.021818 0.30545 0 0.62182-0.010909 0.92727-0.010909s0.61091 0.010909 0.90545 0.010909c0.31636 0 0.64364 0.021818 0.94909 0.021818 0.10909 0 0.24 0 0.24-0.21818 0-0.12-0.087273-0.12-0.37091-0.12-0.27273 0-0.41454 0-0.69818-0.021818-0.31636-0.032727-0.40364-0.065454-0.40364-0.24 0-0.010909 0-0.065454 0.043636-0.22909l1.4509-5.7927z"/>
  </defs>
  <use x="1905.17" y="1490.67" xlink:href="#c"/>
  <use x="1913.67" y="1490.67" xlink:href="#b"/>
  <rect x="1873.2" y="1495.1" width="80.954" height=".43635"/>
  <use x="1873.22" y="1505.53" xlink:href="#g"/>
  <use x="1877.44" y="1505.53" xlink:href="#h"/>
  <use x="1885.31" y="1505.53" xlink:href="#i"/>
  <use x="1897.65" y="1505.53" xlink:href="#e"/>
  <use x="1908.53" y="1505.53" xlink:href="#c"/>
  <use x="1917.04" y="1505.53" xlink:href="#b"/>
  <use x="1925.53" y="1505.53" xlink:href="#f"/>
  <use x="1932.18" y="1505.53" xlink:href="#j"/>
  <use x="1937.62" y="1505.53" xlink:href="#d"/>
  <use x="1943.06" y="1505.53" xlink:href="#a"/>
  <use x="1948.49" y="1505.53" xlink:href="#a"/>
</svg>
