<?xml version="1.0" encoding="UTF-8"?>
<svg width="196.58pt" height="31.871pt" version="1.1" viewBox="1872 1482.9 156.68 25.401" xmlns="http://www.w3.org/2000/svg" xmlns:xlink="http://www.w3.org/1999/xlink">
  <defs>
    <path id="u" d="m7.1891-2.5091c0.18545 0 0.38182 0 0.38182-0.21818s-0.19636-0.21818-0.38182-0.21818h-5.9018c-0.18545 0-0.38182 0-0.38182 0.21818s0.19636 0.21818 0.38182 0.21818h5.9018z"/>
    <path id="j" d="m3.6109 2.6182c0-0.032727 0-0.054545-0.18545-0.24-1.3636-1.3746-1.7127-3.4364-1.7127-5.1054 0-1.8982 0.41454-3.7964 1.7564-5.16 0.14182-0.13091 0.14182-0.15273 0.14182-0.18545 0-0.076364-0.043636-0.10909-0.10909-0.10909-0.10909 0-1.0909 0.74182-1.7345 2.1273-0.55636 1.2-0.68727 2.4109-0.68727 3.3273 0 0.85091 0.12 2.1709 0.72 3.4036 0.65454 1.3418 1.5927 2.0509 1.7018 2.0509 0.065454 0 0.10909-0.032727 0.10909-0.10909z"/>
    <path id="i" d="m3.1527-2.7273c0-0.85091-0.12-2.1709-0.72-3.4036-0.65454-1.3418-1.5927-2.0509-1.7018-2.0509-0.065454 0-0.10909 0.043636-0.10909 0.10909 0 0.032727 0 0.054545 0.20727 0.25091 1.0691 1.08 1.6909 2.8145 1.6909 5.0945 0 1.8654-0.40364 3.7854-1.7564 5.16-0.14182 0.13091-0.14182 0.15273-0.14182 0.18545 0 0.065454 0.043636 0.10909 0.10909 0.10909 0.10909 0 1.0909-0.74182 1.7345-2.1273 0.55636-1.2 0.68727-2.4109 0.68727-3.3273z"/>
    <path id="h" d="m7.4945-3.5673c0.16364 0 0.37091 0 0.37091-0.21818s-0.20727-0.21818-0.36-0.21818h-6.5345c-0.15273 0-0.36 0-0.36 0.21818s0.20727 0.21818 0.37091 0.21818h6.5127zm0.010909 2.1164c0.15273 0 0.36 0 0.36-0.21818s-0.20727-0.21818-0.37091-0.21818h-6.5127c-0.16364 0-0.37091 0-0.37091 0.21818s0.20727 0.21818 0.36 0.21818h6.5345z"/>
    <path id="m" d="m2.2145-0.010909c0-0.72-0.27273-1.1454-0.69818-1.1454-0.36 0-0.57818 0.27273-0.57818 0.57818 0 0.29454 0.21818 0.57818 0.57818 0.57818 0.13091 0 0.27273-0.043636 0.38182-0.14182 0.032727-0.021818 0.043636-0.032727 0.054545-0.032727s0.021818 0.010909 0.021818 0.16364c0 0.80727-0.38182 1.4618-0.74182 1.8218-0.12 0.12-0.12 0.14182-0.12 0.17454 0 0.076364 0.054545 0.12 0.10909 0.12 0.12 0 0.99273-0.84 0.99273-2.1164z"/>
    <path id="e" d="m1.9527-1.2546c-0.43636 0.73091-0.86182 0.88364-1.3418 0.91636-0.13091 0.010909-0.22909 0.010909-0.22909 0.21818 0 0.065454 0.054545 0.12 0.14182 0.12 0.29454 0 0.63273-0.032727 0.93818-0.032727 0.36 0 0.74182 0.032727 1.0909 0.032727 0.065454 0 0.20727 0 0.20727-0.20727 0-0.12-0.098182-0.13091-0.17454-0.13091-0.25091-0.021818-0.51273-0.10909-0.51273-0.38182 0-0.13091 0.065454-0.25091 0.15273-0.40364l0.82909-1.3964h2.7382c0.021818 0.22909 0.17454 1.7127 0.17454 1.8218 0 0.32727-0.56727 0.36-0.78545 0.36-0.15273 0-0.26182 0-0.26182 0.21818 0 0.12 0.13091 0.12 0.15273 0.12 0.44727 0 0.91636-0.032727 1.3636-0.032727 0.27273 0 0.96 0.032727 1.2327 0.032727 0.065454 0 0.19636 0 0.19636-0.21818 0-0.12-0.10909-0.12-0.25091-0.12-0.67636 0-0.67636-0.076364-0.70909-0.39273l-0.66545-6.8182c-0.021818-0.21818-0.021818-0.26182-0.20727-0.26182-0.17454 0-0.21818 0.076364-0.28364 0.18545l-3.7964 6.3709zm1.3091-1.6036 2.1491-3.6 0.34909 3.6h-2.4982z"/>
    <path id="d" d="m1.7454-0.85091c-0.10909 0.42545-0.13091 0.51273-0.99273 0.51273-0.18545 0-0.29454 0-0.29454 0.21818 0 0.12 0.098182 0.12 0.29454 0.12h3.8945c1.7236 0 3.0109-1.2873 3.0109-2.3564 0-0.78545-0.63273-1.4182-1.6909-1.5382 1.1346-0.20727 2.28-1.0146 2.28-2.0509 0-0.80727-0.72-1.5054-2.0291-1.5054h-3.6654c-0.20727 0-0.31636 0-0.31636 0.21818 0 0.12 0.098182 0.12 0.30545 0.12 0.021818 0 0.22909 0 0.41454 0.021818 0.19636 0.021818 0.29454 0.032727 0.29454 0.17454 0 0.043636-0.010909 0.076364-0.043636 0.20727l-1.4618 5.8582zm1.6473-3.1418 0.67636-2.7054c0.098182-0.38182 0.12-0.41454 0.58909-0.41454h1.4073c0.96 0 1.1891 0.64364 1.1891 1.1236 0 0.96-0.93818 1.9964-2.2691 1.9964h-1.5927zm-0.49091 3.6545c-0.15273 0-0.17454 0-0.24-0.010909-0.10909-0.010909-0.14182-0.021818-0.14182-0.10909 0-0.032727 0-0.054545 0.054545-0.25091l0.75273-3.0436h2.0618c1.0473 0 1.2546 0.80727 1.2546 1.2764 0 1.08-0.97091 2.1382-2.2582 2.1382h-1.4836z"/>
    <path id="a" d="m4.08-6.6109c0.098182-0.39273 0.13091-0.50182 0.99273-0.50182 0.26182 0 0.34909 0 0.34909-0.20727 0-0.13091-0.12-0.13091-0.16364-0.13091-0.31636 0-1.1236 0.032727-1.44 0.032727-0.32727 0-1.1236-0.032727-1.4509-0.032727-0.076364 0-0.21818 0-0.21818 0.21818 0 0.12 0.098182 0.12 0.30545 0.12 0.45818 0 0.75273 0 0.75273 0.20727 0 0.054545 0 0.076364-0.021818 0.17454l-1.4727 5.88c-0.098182 0.40364-0.13091 0.51273-0.99273 0.51273-0.25091 0-0.34909 0-0.34909 0.21818 0 0.12 0.13091 0.12 0.16364 0.12 0.31636 0 1.1127-0.032727 1.4291-0.032727 0.32727 0 1.1346 0.032727 1.4618 0.032727 0.087273 0 0.21818 0 0.21818-0.20727 0-0.13091-0.087273-0.13091-0.32727-0.13091-0.19636 0-0.25091 0-0.46909-0.021818-0.22909-0.021818-0.27273-0.065454-0.27273-0.18545 0-0.087273 0.021818-0.17454 0.043636-0.25091l1.4618-5.8145z"/>
    <path id="c" d="m7.0364-7.5818c0-0.032727-0.021818-0.10909-0.12-0.10909-0.054545 0-0.065454 0.010909-0.19636 0.16364l-0.52364 0.62182c-0.28364-0.51273-0.85091-0.78545-1.56-0.78545-1.3854 0-2.6945 1.2546-2.6945 2.5745 0 0.88364 0.57818 1.3854 1.1346 1.5491l1.1673 0.30545c0.40364 0.098182 1.0036 0.26182 1.0036 1.1564 0 0.98182-0.89454 2.0073-1.9636 2.0073-0.69818 0-1.9091-0.24-1.9091-1.5927 0-0.26182 0.054545-0.52364 0.065454-0.58909 0.010909-0.043636 0.021818-0.054545 0.021818-0.076364 0-0.10909-0.076364-0.12-0.13091-0.12s-0.076364 0.010909-0.10909 0.043636c-0.043636 0.043636-0.65454 2.5309-0.65454 2.5636 0 0.065454 0.054545 0.10909 0.12 0.10909 0.054545 0 0.065454-0.010909 0.19636-0.16364l0.53454-0.62182c0.46909 0.63273 1.2109 0.78545 1.8436 0.78545 1.4836 0 2.7709-1.4509 2.7709-2.8036 0-0.75273-0.37091-1.1236-0.53454-1.2764-0.25091-0.25091-0.41454-0.29454-1.3854-0.54545-0.24-0.065454-0.63273-0.17454-0.73091-0.19636-0.29454-0.098182-0.66545-0.41454-0.66545-0.99273 0-0.88364 0.87273-1.8109 1.9091-1.8109 0.90545 0 1.5709 0.46909 1.5709 1.6909 0 0.34909-0.043636 0.54545-0.043636 0.61091 0 0.010909 0 0.10909 0.13091 0.10909 0.10909 0 0.12-0.032727 0.16364-0.21818l0.58909-2.3891z"/>
    <path id="l" d="m4.0691-4.1236c-0.19636-0.40364-0.51273-0.69818-1.0036-0.69818-1.2764 0-2.6291 1.6036-2.6291 3.1964 0 1.0254 0.6 1.7454 1.4509 1.7454 0.21818 0 0.76364-0.043636 1.4182-0.81818 0.087273 0.45818 0.46909 0.81818 0.99273 0.81818 0.38182 0 0.63273-0.25091 0.80727-0.6 0.18545-0.39273 0.32727-1.0582 0.32727-1.08 0-0.10909-0.098182-0.10909-0.13091-0.10909-0.10909 0-0.12 0.043636-0.15273 0.19636-0.18545 0.70909-0.38182 1.3527-0.82909 1.3527-0.29454 0-0.32727-0.28364-0.32727-0.50182 0-0.24 0.021818-0.32727 0.14182-0.80727 0.12-0.45818 0.14182-0.56727 0.24-0.98182l0.39273-1.5273c0.076364-0.30545 0.076364-0.32727 0.076364-0.37091 0-0.18545-0.13091-0.29454-0.31636-0.29454-0.26182 0-0.42545 0.24-0.45818 0.48zm-0.70909 2.8254c-0.054545 0.19636-0.054545 0.21818-0.21818 0.40364-0.48 0.6-0.92727 0.77454-1.2327 0.77454-0.54545 0-0.69818-0.6-0.69818-1.0254 0-0.54545 0.34909-1.8873 0.6-2.3891 0.33818-0.64364 0.82909-1.0473 1.2654-1.0473 0.70909 0 0.86182 0.89454 0.86182 0.96s-0.021818 0.13091-0.032727 0.18545l-0.54545 2.1382z"/>
    <path id="k" d="m4.32-4.1454c-0.17454 0-0.32727 0-0.48 0.15273-0.17454 0.16364-0.19636 0.34909-0.19636 0.42545 0 0.26182 0.19636 0.38182 0.40364 0.38182 0.31636 0 0.61091-0.26182 0.61091-0.69818 0-0.53454-0.51273-0.93818-1.2873-0.93818-1.4727 0-2.9236 1.56-2.9236 3.0982 0 0.98182 0.63273 1.8436 1.7673 1.8436 1.56 0 2.4764-1.1564 2.4764-1.2873 0-0.065454-0.065454-0.14182-0.13091-0.14182-0.054545 0-0.076364 0.021818-0.14182 0.10909-0.86182 1.08-2.0509 1.08-2.1818 1.08-0.68727 0-0.98182-0.53454-0.98182-1.1891 0-0.44727 0.21818-1.5054 0.58909-2.1818 0.33818-0.62182 0.93818-1.0909 1.5382-1.0909 0.37091 0 0.78545 0.14182 0.93818 0.43636z"/>
    <path id="b" d="m2.04-2.52c0.31636 0 1.1236-0.021818 1.6691-0.25091 0.76364-0.32727 0.81818-0.97091 0.81818-1.1236 0-0.48-0.41454-0.92727-1.1673-0.92727-1.2109 0-2.8582 1.0582-2.8582 2.9673 0 1.1127 0.64364 1.9745 1.7127 1.9745 1.56 0 2.4764-1.1564 2.4764-1.2873 0-0.065454-0.065454-0.14182-0.13091-0.14182-0.054545 0-0.076364 0.021818-0.14182 0.10909-0.86182 1.08-2.0509 1.08-2.1818 1.08-0.85091 0-0.94909-0.91636-0.94909-1.2654 0-0.13091 0.010909-0.46909 0.17454-1.1346h0.57818zm-0.51273-0.24c0.42545-1.6582 1.5491-1.8218 1.8327-1.8218 0.51273 0 0.80727 0.31636 0.80727 0.68727 0 1.1346-1.7454 1.1346-2.1927 1.1346h-0.44727z"/>
    <path id="t" d="m3.1309-7.4509c0-0.010909 0-0.12-0.14182-0.12-0.25091 0-1.0473 0.087273-1.3309 0.10909-0.087273 0.010909-0.20727 0.021818-0.20727 0.21818 0 0.13091 0.098182 0.13091 0.26182 0.13091 0.52364 0 0.54545 0.076364 0.54545 0.18545l-0.032727 0.21818-1.5818 6.2836c-0.043636 0.15273-0.043636 0.17454-0.043636 0.24 0 0.25091 0.21818 0.30545 0.31636 0.30545 0.17454 0 0.34909-0.13091 0.40364-0.28364l0.20727-0.82909 0.24-0.98182c0.065454-0.24 0.13091-0.48 0.18545-0.73091 0.021818-0.065454 0.10909-0.42545 0.12-0.49091 0.032727-0.098182 0.37091-0.70909 0.74182-1.0036 0.24-0.17454 0.57818-0.38182 1.0473-0.38182s0.58909 0.37091 0.58909 0.76364c0 0.58909-0.41454 1.7782-0.67636 2.4436-0.087273 0.25091-0.14182 0.38182-0.14182 0.6 0 0.51273 0.38182 0.89454 0.89454 0.89454 1.0254 0 1.4291-1.5927 1.4291-1.68 0-0.10909-0.098182-0.10909-0.13091-0.10909-0.10909 0-0.10909 0.032727-0.16364 0.19636-0.16364 0.57818-0.51273 1.3527-1.1127 1.3527-0.18545 0-0.26182-0.10909-0.26182-0.36 0-0.27273 0.098182-0.53454 0.19636-0.77454 0.17454-0.46909 0.66545-1.7673 0.66545-2.4 0-0.70909-0.43636-1.1673-1.2546-1.1673-0.68727 0-1.2109 0.33818-1.6146 0.84l0.85091-3.4691z"/>
    <path id="s" d="m3.0982-6.8182c0-0.21818-0.15273-0.39273-0.40364-0.39273-0.29454 0-0.58909 0.28364-0.58909 0.57818 0 0.20727 0.15273 0.39273 0.41454 0.39273 0.25091 0 0.57818-0.25091 0.57818-0.57818zm-0.82909 4.1018c0.13091-0.31636 0.13091-0.33818 0.24-0.63273 0.087273-0.21818 0.14182-0.37091 0.14182-0.57818 0-0.49091-0.34909-0.89454-0.89454-0.89454-1.0254 0-1.44 1.5818-1.44 1.68 0 0.10909 0.10909 0.10909 0.13091 0.10909 0.10909 0 0.12-0.021818 0.17454-0.19636 0.29454-1.0254 0.73091-1.3527 1.1018-1.3527 0.087273 0 0.27273 0 0.27273 0.34909 0 0.22909-0.076364 0.45818-0.12 0.56727-0.087273 0.28364-0.57818 1.5491-0.75273 2.0182-0.10909 0.28364-0.25091 0.64364-0.25091 0.87273 0 0.51273 0.37091 0.89454 0.89454 0.89454 1.0254 0 1.4291-1.5818 1.4291-1.68 0-0.10909-0.098182-0.10909-0.13091-0.10909-0.10909 0-0.10909 0.032727-0.16364 0.19636-0.19636 0.68727-0.55636 1.3527-1.1127 1.3527-0.18545 0-0.26182-0.10909-0.26182-0.36 0-0.27273 0.065454-0.42545 0.31636-1.0909l0.42545-1.1454z"/>
    <path id="r" d="m2.8145-7.4509c0-0.010909 0-0.12-0.14182-0.12-0.25091 0-1.0473 0.087273-1.3309 0.10909-0.087273 0.010909-0.20727 0.021818-0.20727 0.22909 0 0.12 0.10909 0.12 0.27273 0.12 0.52364 0 0.53454 0.098182 0.53454 0.18545l-0.032727 0.21818-1.3746 5.4545c-0.032727 0.12-0.054545 0.19636-0.054545 0.37091 0 0.62182 0.48 1.0036 0.99273 1.0036 0.36 0 0.63273-0.21818 0.81818-0.61091 0.19636-0.41454 0.32727-1.0473 0.32727-1.0691 0-0.10909-0.098182-0.10909-0.13091-0.10909-0.10909 0-0.12 0.043636-0.15273 0.19636-0.18545 0.70909-0.39273 1.3527-0.82909 1.3527-0.32727 0-0.32727-0.34909-0.32727-0.50182 0-0.26182 0.010909-0.31636 0.065454-0.52364l1.5709-6.3054z"/>
    <path id="q" d="m0.96-0.64364c-0.032727 0.16364-0.098182 0.41454-0.098182 0.46909 0 0.19636 0.15273 0.29454 0.31636 0.29454 0.13091 0 0.32727-0.087273 0.40364-0.30545 0.010909-0.021818 0.14182-0.53454 0.20727-0.80727l0.24-0.98182c0.065454-0.24 0.13091-0.48 0.18545-0.73091 0.043636-0.18545 0.13091-0.50182 0.14182-0.54545 0.16364-0.33818 0.74182-1.3309 1.7782-1.3309 0.49091 0 0.58909 0.40364 0.58909 0.76364 0 0.27273-0.076364 0.57818-0.16364 0.90545l-0.30545 1.2654-0.21818 0.82909c-0.043636 0.21818-0.14182 0.58909-0.14182 0.64364 0 0.19636 0.15273 0.29454 0.31636 0.29454 0.33818 0 0.40364-0.27273 0.49091-0.62182 0.15273-0.61091 0.55636-2.2036 0.65454-2.6291 0.032727-0.14182 0.61091-1.4509 1.8-1.4509 0.46909 0 0.58909 0.37091 0.58909 0.76364 0 0.62182-0.45818 1.8654-0.67636 2.4436-0.098182 0.26182-0.14182 0.38182-0.14182 0.6 0 0.51273 0.38182 0.89454 0.89454 0.89454 1.0254 0 1.4291-1.5927 1.4291-1.68 0-0.10909-0.098182-0.10909-0.13091-0.10909-0.10909 0-0.10909 0.032727-0.16364 0.19636-0.16364 0.57818-0.51273 1.3527-1.1127 1.3527-0.18545 0-0.26182-0.10909-0.26182-0.36 0-0.27273 0.098182-0.53454 0.19636-0.77454 0.20727-0.56727 0.66545-1.7782 0.66545-2.4 0-0.70909-0.43636-1.1673-1.2546-1.1673s-1.3746 0.48-1.7782 1.0582c-0.010909-0.14182-0.043636-0.51273-0.34909-0.77454-0.27273-0.22909-0.62182-0.28364-0.89454-0.28364-0.98182 0-1.5164 0.69818-1.7018 0.94909-0.054545-0.62182-0.51273-0.94909-1.0036-0.94909-0.50182 0-0.70909 0.42545-0.80727 0.62182-0.19636 0.38182-0.33818 1.0254-0.33818 1.0582 0 0.10909 0.10909 0.10909 0.13091 0.10909 0.10909 0 0.12-0.010909 0.18545-0.25091 0.18545-0.77454 0.40364-1.2982 0.79636-1.2982 0.17454 0 0.33818 0.087273 0.33818 0.50182 0 0.22909-0.032727 0.34909-0.17454 0.91636l-0.63273 2.52z"/>
    <path id="g" d="m5.1164-2.9782c0-1.1346-0.76364-1.8436-1.7454-1.8436-1.4618 0-2.9236 1.5491-2.9236 3.0982 0 1.08 0.73091 1.8436 1.7454 1.8436 1.4509 0 2.9236-1.5054 2.9236-3.0982zm-2.9127 2.8582c-0.46909 0-0.94909-0.33818-0.94909-1.1891 0-0.53454 0.28364-1.7127 0.63273-2.2691 0.54545-0.84 1.1673-1.0036 1.4727-1.0036 0.63273 0 0.96 0.52364 0.96 1.1782 0 0.42545-0.21818 1.5709-0.63273 2.28-0.38182 0.63273-0.98182 1.0036-1.4836 1.0036z"/>
    <path id="p" d="m0.96-0.64364c-0.032727 0.16364-0.098182 0.41454-0.098182 0.46909 0 0.19636 0.15273 0.29454 0.31636 0.29454 0.13091 0 0.32727-0.087273 0.40364-0.30545 0.021818-0.043636 0.39273-1.5273 0.43636-1.7236 0.087273-0.36 0.28364-1.1236 0.34909-1.4182 0.043636-0.14182 0.34909-0.65454 0.61091-0.89454 0.087273-0.076364 0.40364-0.36 0.87273-0.36 0.28364 0 0.44727 0.13091 0.45818 0.13091-0.32727 0.054545-0.56727 0.31636-0.56727 0.6 0 0.17454 0.12 0.38182 0.41454 0.38182s0.6-0.25091 0.6-0.64364c0-0.38182-0.34909-0.70909-0.90545-0.70909-0.70909 0-1.1891 0.53454-1.3964 0.84-0.087273-0.49091-0.48-0.84-0.99273-0.84-0.50182 0-0.70909 0.42545-0.80727 0.62182-0.19636 0.37091-0.33818 1.0254-0.33818 1.0582 0 0.10909 0.10909 0.10909 0.13091 0.10909 0.10909 0 0.12-0.010909 0.18545-0.25091 0.18545-0.77454 0.40364-1.2982 0.79636-1.2982 0.18545 0 0.33818 0.087273 0.33818 0.50182 0 0.22909-0.032727 0.34909-0.17454 0.91636l-0.63273 2.52z"/>
    <path id="f" d="m2.2473-4.3636h1.0254c0.21818 0 0.32727 0 0.32727-0.21818 0-0.12-0.10909-0.12-0.30545-0.12h-0.96c0.39273-1.5491 0.44727-1.7673 0.44727-1.8327 0-0.18545-0.13091-0.29454-0.31636-0.29454-0.032727 0-0.33818 0.010909-0.43636 0.39273l-0.42545 1.7345h-1.0254c-0.21818 0-0.32727 0-0.32727 0.20727 0 0.13091 0.087273 0.13091 0.30545 0.13091h0.96c-0.78545 3.0982-0.82909 3.2836-0.82909 3.48 0 0.58909 0.41454 1.0036 1.0036 1.0036 1.1127 0 1.7345-1.5927 1.7345-1.68 0-0.10909-0.087273-0.10909-0.13091-0.10909-0.098182 0-0.10909 0.032727-0.16364 0.15273-0.46909 1.1346-1.0473 1.3964-1.4182 1.3964-0.22909 0-0.33818-0.14182-0.33818-0.50182 0-0.26182 0.021818-0.33818 0.065454-0.52364l0.80727-3.2182z"/>
    <path id="o" d="m3.8182-0.61091c0.12 0.44727 0.50182 0.73091 0.97091 0.73091 0.38182 0 0.63273-0.25091 0.80727-0.6 0.18545-0.39273 0.32727-1.0582 0.32727-1.08 0-0.10909-0.098182-0.10909-0.13091-0.10909-0.10909 0-0.12 0.043636-0.15273 0.19636-0.15273 0.61091-0.36 1.3527-0.81818 1.3527-0.22909 0-0.33818-0.14182-0.33818-0.50182 0-0.24 0.13091-0.75273 0.21818-1.1346l0.30545-1.1782c0.032727-0.16364 0.14182-0.57818 0.18545-0.74182 0.054545-0.25091 0.16364-0.66545 0.16364-0.73091 0-0.19636-0.15273-0.29454-0.31636-0.29454-0.054545 0-0.33818 0.010909-0.42545 0.38182-0.20727 0.79636-0.68727 2.7054-0.81818 3.2836-0.010909 0.043636-0.44727 0.91636-1.2436 0.91636-0.56727 0-0.67636-0.49091-0.67636-0.89454 0-0.61091 0.30545-1.4727 0.58909-2.2254 0.13091-0.32727 0.18545-0.48 0.18545-0.68727 0-0.49091-0.34909-0.89454-0.89454-0.89454-1.0364 0-1.44 1.5818-1.44 1.68 0 0.10909 0.10909 0.10909 0.13091 0.10909 0.10909 0 0.12-0.021818 0.17454-0.19636 0.27273-0.94909 0.68727-1.3527 1.1018-1.3527 0.098182 0 0.27273 0.010909 0.27273 0.36 0 0.26182-0.12 0.57818-0.18545 0.74182-0.40364 1.08-0.63273 1.7564-0.63273 2.2909 0 1.0364 0.75273 1.3091 1.3418 1.3091 0.72 0 1.1127-0.49091 1.2982-0.73091z"/>
    <path id="n" d="m3.6436-3.2945c0.065454-0.28364 0.31636-1.2873 1.08-1.2873 0.054545 0 0.31636 0 0.54545 0.14182-0.30545 0.054545-0.52364 0.32727-0.52364 0.58909 0 0.17454 0.12 0.38182 0.41454 0.38182 0.24 0 0.58909-0.19636 0.58909-0.63273 0-0.56727-0.64364-0.72-1.0146-0.72-0.63273 0-1.0146 0.57818-1.1454 0.82909-0.27273-0.72-0.86182-0.82909-1.1782-0.82909-1.1346 0-1.7564 1.4073-1.7564 1.68 0 0.10909 0.10909 0.10909 0.13091 0.10909 0.087273 0 0.12-0.021818 0.14182-0.12 0.37091-1.1564 1.0909-1.4291 1.4618-1.4291 0.20727 0 0.58909 0.098182 0.58909 0.73091 0 0.33818-0.18545 1.0691-0.58909 2.5964-0.17454 0.67636-0.55636 1.1346-1.0364 1.1346-0.065454 0-0.31636 0-0.54545-0.14182 0.27273-0.054545 0.51273-0.28364 0.51273-0.58909 0-0.29454-0.24-0.38182-0.40364-0.38182-0.32727 0-0.6 0.28364-0.6 0.63273 0 0.50182 0.54545 0.72 1.0254 0.72 0.72 0 1.1127-0.76364 1.1454-0.82909 0.13091 0.40364 0.52364 0.82909 1.1782 0.82909 1.1236 0 1.7454-1.4073 1.7454-1.68 0-0.10909-0.098182-0.10909-0.13091-0.10909-0.098182 0-0.12 0.043636-0.14182 0.12-0.36 1.1673-1.1018 1.4291-1.4509 1.4291-0.42545 0-0.6-0.34909-0.6-0.72 0-0.24 0.065454-0.48 0.18545-0.96l0.37091-1.4946z"/>
  </defs>
  <use x="1872.02" y="1498.05" xlink:href="#c"/>
  <use x="1879.31" y="1498.05" xlink:href="#s"/>
  <use x="1883.06" y="1498.05" xlink:href="#r"/>
  <use x="1886.51" y="1498.05" xlink:href="#t"/>
  <use x="1892.78" y="1498.05" xlink:href="#g"/>
  <use x="1898.04" y="1498.05" xlink:href="#o"/>
  <use x="1904.27" y="1498.05" xlink:href="#b"/>
  <use x="1909.33" y="1498.05" xlink:href="#f"/>
  <use x="1913.25" y="1498.05" xlink:href="#f"/>
  <use x="1917.18" y="1498.05" xlink:href="#b"/>
  <use x="1922.24" y="1498.05" xlink:href="#c"/>
  <use x="1929.53" y="1498.05" xlink:href="#k"/>
  <use x="1934.23" y="1498.05" xlink:href="#g"/>
  <use x="1939.5" y="1498.05" xlink:href="#p"/>
  <use x="1944.71" y="1498.05" xlink:href="#b"/>
  <use x="1952.8" y="1498.05" xlink:href="#h"/>
  <use x="1976.27" y="1490.67" xlink:href="#d"/>
  <use x="1985.06" y="1490.67" xlink:href="#a"/>
  <use x="1993.12" y="1490.67" xlink:href="#u"/>
  <use x="2003.99" y="1490.67" xlink:href="#e"/>
  <use x="2012.15" y="1490.67" xlink:href="#a"/>
  <rect x="1965.5" y="1495.1" width="63.22" height=".43635"/>
  <use x="1965.48" y="1505.53" xlink:href="#q"/>
  <use x="1975.02" y="1505.53" xlink:href="#l"/>
  <use x="1980.77" y="1505.53" xlink:href="#n"/>
  <use x="1986.98" y="1505.53" xlink:href="#j"/>
  <use x="1991.2" y="1505.53" xlink:href="#e"/>
  <use x="1999.35" y="1505.53" xlink:href="#a"/>
  <use x="2004.99" y="1505.53" xlink:href="#m"/>
  <use x="2009.83" y="1505.53" xlink:href="#d"/>
  <use x="2018.62" y="1505.53" xlink:href="#a"/>
  <use x="2024.25" y="1505.53" xlink:href="#i"/>
</svg>
