<?xml version="1.0" encoding="UTF-8"?>
<svg width="91.866pt" height="31.402pt" version="1.1" viewBox="1872 1483 73.218 25.028" xmlns="http://www.w3.org/2000/svg" xmlns:xlink="http://www.w3.org/1999/xlink">
  <defs>
    <path id="d" d="m1.9527-1.2546c-0.43636 0.73091-0.86182 0.88364-1.3418 0.91636-0.13091 0.010909-0.22909 0.010909-0.22909 0.21818 0 0.065454 0.054545 0.12 0.14182 0.12 0.29454 0 0.63273-0.032727 0.93818-0.032727 0.36 0 0.74182 0.032727 1.0909 0.032727 0.065454 0 0.20727 0 0.20727-0.20727 0-0.12-0.098182-0.13091-0.17454-0.13091-0.25091-0.021818-0.51273-0.10909-0.51273-0.38182 0-0.13091 0.065454-0.25091 0.15273-0.40364l0.82909-1.3964h2.7382c0.021818 0.22909 0.17454 1.7127 0.17454 1.8218 0 0.32727-0.56727 0.36-0.78545 0.36-0.15273 0-0.26182 0-0.26182 0.21818 0 0.12 0.13091 0.12 0.15273 0.12 0.44727 0 0.91636-0.032727 1.3636-0.032727 0.27273 0 0.96 0.032727 1.2327 0.032727 0.065454 0 0.19636 0 0.19636-0.21818 0-0.12-0.10909-0.12-0.25091-0.12-0.67636 0-0.67636-0.076364-0.70909-0.39273l-0.66545-6.8182c-0.021818-0.21818-0.021818-0.26182-0.20727-0.26182-0.17454 0-0.21818 0.076364-0.28364 0.18545l-3.7964 6.3709zm1.3091-1.6036 2.1491-3.6 0.34909 3.6h-2.4982z"/>
    <path id="c" d="m8.2909-7.5818c0-0.032727-0.021818-0.10909-0.12-0.10909-0.032727 0-0.043636 0.010909-0.16364 0.13091l-0.76364 0.84c-0.098182-0.15273-0.6-0.97091-1.8109-0.97091-2.4327 0-4.8873 2.4109-4.8873 4.9418 0 1.8 1.2873 2.9891 2.9564 2.9891 0.94909 0 1.7782-0.43636 2.3564-0.93818 1.0146-0.89454 1.2-1.8873 1.2-1.92 0-0.10909-0.10909-0.10909-0.13091-0.10909-0.065454 0-0.12 0.021818-0.14182 0.10909-0.098182 0.31636-0.34909 1.0909-1.1018 1.7236-0.75273 0.61091-1.44 0.79636-2.0073 0.79636-0.98182 0-2.1382-0.56727-2.1382-2.2691 0-0.62182 0.22909-2.3891 1.32-3.6654 0.66545-0.77454 1.6909-1.32 2.6618-1.32 1.1127 0 1.7564 0.84 1.7564 2.1054 0 0.43636-0.032727 0.44727-0.032727 0.55636s0.12 0.10909 0.16364 0.10909c0.14182 0 0.14182-0.021818 0.19636-0.21818l0.68727-2.7818z"/>
    <path id="i" d="m4.7782-0.065454c1.6909-0.64364 3.2945-2.5854 3.2945-4.6909 0-1.7564-1.1564-2.9345-2.7818-2.9345-2.3564 0-4.7564 2.4764-4.7564 5.0182 0 1.8109 1.2218 2.9127 2.7927 2.9127 0.27273 0 0.64364-0.043636 1.0691-0.16364-0.043636 0.67636-0.043636 0.69818-0.043636 0.84 0 0.34909 0 1.2 0.90545 1.2 1.2982 0 1.8218-1.9964 1.8218-2.1164 0-0.076364-0.076364-0.10909-0.12-0.10909-0.087273 0-0.10909 0.054545-0.13091 0.12-0.26182 0.77454-0.89454 1.0473-1.2764 1.0473-0.50182 0-0.66545-0.29454-0.77454-1.1236zm-2.0618-0.087273c-0.85091-0.33818-1.2218-1.1891-1.2218-2.1709 0-0.75273 0.28364-2.3018 1.1127-3.48 0.79636-1.1127 1.8218-1.6146 2.6182-1.6146 1.0909 0 1.8873 0.85091 1.8873 2.3127 0 1.0909-0.55636 3.6436-2.3891 4.6691-0.054545-0.38182-0.16364-1.1782-0.96-1.1782-0.57818 0-1.1127 0.54545-1.1127 1.1127 0 0.21818 0.065454 0.33818 0.065454 0.34909zm0.67636 0.12c-0.15273 0-0.50182 0-0.50182-0.46909 0-0.43636 0.41454-0.87273 0.87273-0.87273s0.66545 0.26182 0.66545 0.92727c0 0.16364-0.010909 0.17454-0.12 0.21818-0.28364 0.12-0.61091 0.19636-0.91636 0.19636z"/>
    <path id="b" d="m6.9273-6.3054c0.10909-0.44727 0.30545-0.77454 1.1782-0.80727 0.054545 0 0.18545-0.010909 0.18545-0.21818 0-0.010909 0-0.12-0.14182-0.12-0.36 0-0.74182 0.032727-1.1127 0.032727s-0.77454-0.032727-1.1346-0.032727c-0.065454 0-0.19636 0-0.19636 0.21818 0 0.12 0.10909 0.12 0.19636 0.12 0.62182 0.010909 0.74182 0.24 0.74182 0.48 0 0.032727-0.021818 0.19636-0.032727 0.22909l-0.98182 3.8945c-0.37091 1.4618-1.6254 2.4109-2.7164 2.4109-0.74182 0-1.3309-0.48-1.3309-1.4182 0-0.021818 0-0.37091 0.12-0.85091l1.0582-4.2436c0.098182-0.39273 0.12-0.50182 0.91636-0.50182 0.28364 0 0.37091 0 0.37091-0.21818 0-0.12-0.12-0.12-0.15273-0.12-0.30545 0-1.0909 0.032727-1.3964 0.032727-0.31636 0-1.0909-0.032727-1.4073-0.032727-0.087273 0-0.20727 0-0.20727 0.21818 0 0.12 0.098182 0.12 0.30545 0.12 0.021818 0 0.22909 0 0.41454 0.021818 0.19636 0.021818 0.29454 0.032727 0.29454 0.17454 0 0.065454-0.12 0.52364-0.18545 0.77454l-0.24 0.96c-0.098182 0.42545-0.62182 2.4873-0.66545 2.6945-0.076364 0.30545-0.076364 0.46909-0.076364 0.63273 0 1.3309 0.99273 2.0945 2.1382 2.0945 1.3746 0 2.7273-1.2327 3.0873-2.6727l0.97091-3.8727z"/>
    <path id="a" d="m2.2476-1.6259c0.12752-0.11955 0.46227-0.38256 0.58979-0.49415 0.49415-0.4543 0.96438-0.89265 0.96438-1.6179 0-0.94844-0.79701-1.5621-1.7933-1.5621-0.95641 0-1.586 0.72528-1.586 1.4346 0 0.39054 0.31083 0.44633 0.42242 0.44633 0.16737 0 0.41445-0.11955 0.41445-0.42242 0-0.41445-0.39851-0.41445-0.49415-0.41445 0.23113-0.58182 0.76513-0.78107 1.1557-0.78107 0.74122 0 1.1238 0.62964 1.1238 1.2991 0 0.82889-0.58182 1.4346-1.5223 2.399l-1.0042 1.0361c-0.095641 0.087671-0.095641 0.10361-0.095641 0.30286h3.1482l0.23113-1.4266h-0.24707c-0.02391 0.1594-0.087671 0.55791-0.18331 0.70934-0.047821 0.063761-0.65355 0.063761-0.78107 0.063761h-1.4187l1.076-0.97235z"/>
    <path id="h" d="m4.4618-2.5091h3.0436c0.15273 0 0.36 0 0.36-0.21818s-0.20727-0.21818-0.36-0.21818h-3.0436v-3.0545c0-0.15273 0-0.36-0.21818-0.36s-0.21818 0.20727-0.21818 0.36v3.0545h-3.0545c-0.15273 0-0.36 0-0.36 0.21818s0.20727 0.21818 0.36 0.21818h3.0545v3.0545c0 0.15273 0 0.36 0.21818 0.36s0.21818-0.20727 0.21818-0.36v-3.0545z"/>
    <path id="g" d="m3.2073-6.9818c0-0.26182 0-0.28364-0.25091-0.28364-0.67636 0.69818-1.6364 0.69818-1.9854 0.69818v0.33818c0.21818 0 0.86182 0 1.4291-0.28364v5.6509c0 0.39273-0.032727 0.52364-1.0146 0.52364h-0.34909v0.33818c0.38182-0.032727 1.3309-0.032727 1.7673-0.032727s1.3854 0 1.7673 0.032727v-0.33818h-0.34909c-0.98182 0-1.0146-0.12-1.0146-0.52364v-6.12z"/>
    <path id="f" d="m1.3854-0.84 1.1564-1.1236c1.7018-1.5054 2.3564-2.0945 2.3564-3.1854 0-1.2436-0.98182-2.1164-2.3127-2.1164-1.2327 0-2.04 1.0036-2.04 1.9745 0 0.61091 0.54545 0.61091 0.57818 0.61091 0.18545 0 0.56727-0.13091 0.56727-0.57818 0-0.28364-0.19636-0.56727-0.57818-0.56727-0.087273 0-0.10909 0-0.14182 0.010909 0.25091-0.70909 0.84-1.1127 1.4727-1.1127 0.99273 0 1.4618 0.88364 1.4618 1.7782 0 0.87273-0.54545 1.7345-1.1454 2.4109l-2.0945 2.3345c-0.12 0.12-0.12 0.14182-0.12 0.40364h4.0473l0.30545-1.8982h-0.27273c-0.054545 0.32727-0.13091 0.80727-0.24 0.97091-0.076364 0.087273-0.79636 0.087273-1.0364 0.087273h-1.9636z"/>
    <path id="e" d="m7.4945-3.5673c0.16364 0 0.37091 0 0.37091-0.21818s-0.20727-0.21818-0.36-0.21818h-6.5345c-0.15273 0-0.36 0-0.36 0.21818s0.20727 0.21818 0.37091 0.21818h6.5127zm0.010909 2.1164c0.15273 0 0.36 0 0.36-0.21818s-0.20727-0.21818-0.37091-0.21818h-6.5127c-0.16364 0-0.37091 0-0.37091 0.21818s0.20727 0.21818 0.36 0.21818h6.5345z"/>
  </defs>
  <use x="1872.02" y="1499.69" xlink:href="#i"/>
  <use x="1880.61" y="1501.33" xlink:href="#a"/>
  <use x="1888.37" y="1499.69" xlink:href="#e"/>
  <use x="1905.35" y="1492.31" xlink:href="#f"/>
  <use x="1910.79" y="1492.31" xlink:href="#d"/>
  <use x="1918.94" y="1492.31" xlink:href="#b"/>
  <use x="1927.55" y="1492.31" xlink:href="#c"/>
  <use x="1936.1" y="1488.35" xlink:href="#a"/>
  <rect x="1901" y="1496.8" width="44.185" height=".43635"/>
  <use x="1901.05" y="1507.17" xlink:href="#g"/>
  <use x="1908.91" y="1507.17" xlink:href="#h"/>
  <use x="1919.79" y="1507.17" xlink:href="#d"/>
  <use x="1927.94" y="1507.17" xlink:href="#b"/>
  <use x="1936.55" y="1507.17" xlink:href="#c"/>
</svg>
