<?xml version="1.0" encoding="UTF-8"?>
<svg width="17.03pt" height="9.8002pt" version="1.1" viewBox="1872 1482.9 13.573 7.8109" xmlns="http://www.w3.org/2000/svg" xmlns:xlink="http://www.w3.org/1999/xlink">
  <defs>
    <path id="b" d="m1.9527-1.2546c-0.43636 0.73091-0.86182 0.88364-1.3418 0.91636-0.13091 0.010909-0.22909 0.010909-0.22909 0.21818 0 0.065454 0.054545 0.12 0.14182 0.12 0.29454 0 0.63273-0.032727 0.93818-0.032727 0.36 0 0.74182 0.032727 1.0909 0.032727 0.065454 0 0.20727 0 0.20727-0.20727 0-0.12-0.098182-0.13091-0.17454-0.13091-0.25091-0.021818-0.51273-0.10909-0.51273-0.38182 0-0.13091 0.065454-0.25091 0.15273-0.40364l0.82909-1.3964h2.7382c0.021818 0.22909 0.17454 1.7127 0.17454 1.8218 0 0.32727-0.56727 0.36-0.78545 0.36-0.15273 0-0.26182 0-0.26182 0.21818 0 0.12 0.13091 0.12 0.15273 0.12 0.44727 0 0.91636-0.032727 1.3636-0.032727 0.27273 0 0.96 0.032727 1.2327 0.032727 0.065454 0 0.19636 0 0.19636-0.21818 0-0.12-0.10909-0.12-0.25091-0.12-0.67636 0-0.67636-0.076364-0.70909-0.39273l-0.66545-6.8182c-0.021818-0.21818-0.021818-0.26182-0.20727-0.26182-0.17454 0-0.21818 0.076364-0.28364 0.18545l-3.7964 6.3709zm1.3091-1.6036 2.1491-3.6 0.34909 3.6h-2.4982z"/>
    <path id="a" d="m4.08-6.6109c0.098182-0.39273 0.13091-0.50182 0.99273-0.50182 0.26182 0 0.34909 0 0.34909-0.20727 0-0.13091-0.12-0.13091-0.16364-0.13091-0.31636 0-1.1236 0.032727-1.44 0.032727-0.32727 0-1.1236-0.032727-1.4509-0.032727-0.076364 0-0.21818 0-0.21818 0.21818 0 0.12 0.098182 0.12 0.30545 0.12 0.45818 0 0.75273 0 0.75273 0.20727 0 0.054545 0 0.076364-0.021818 0.17454l-1.4727 5.88c-0.098182 0.40364-0.13091 0.51273-0.99273 0.51273-0.25091 0-0.34909 0-0.34909 0.21818 0 0.12 0.13091 0.12 0.16364 0.12 0.31636 0 1.1127-0.032727 1.4291-0.032727 0.32727 0 1.1346 0.032727 1.4618 0.032727 0.087273 0 0.21818 0 0.21818-0.20727 0-0.13091-0.087273-0.13091-0.32727-0.13091-0.19636 0-0.25091 0-0.46909-0.021818-0.22909-0.021818-0.27273-0.065454-0.27273-0.18545 0-0.087273 0.021818-0.17454 0.043636-0.25091l1.4618-5.8145z"/>
  </defs>
  <use x="1872.02" y="1490.67" xlink:href="#b"/>
  <use x="1880.17" y="1490.67" xlink:href="#a"/>
</svg>
