<?xml version="1.0" encoding="UTF-8"?>
<svg width="20.99pt" height="9.3486pt" version="1.1" viewBox="1872 1483.2 16.73 7.4509" xmlns="http://www.w3.org/2000/svg" xmlns:xlink="http://www.w3.org/1999/xlink">
  <defs>
    <path id="b" d="m3.3054-3.5454h1.0582c0.81818 0 0.90545 0.17454 0.90545 0.49091 0 0.076364 0 0.20727-0.076364 0.53454-0.021818 0.054545-0.032727 0.098182-0.032727 0.12 0 0.087273 0.065454 0.13091 0.13091 0.13091 0.10909 0 0.10909-0.032727 0.16364-0.22909l0.6-2.3673c0.032727-0.12 0.032727-0.14182 0.032727-0.17454 0-0.021818-0.021818-0.12-0.13091-0.12s-0.12 0.054545-0.16364 0.22909c-0.22909 0.85091-0.48 1.0473-1.4073 1.0473h-0.99273l0.69818-2.7709c0.098182-0.38182 0.10909-0.42545 0.58909-0.42545h1.44c1.3418 0 1.5927 0.36 1.5927 1.2 0 0.25091 0 0.29454-0.032727 0.58909-0.021818 0.14182-0.021818 0.16364-0.021818 0.19636 0 0.054545 0.032727 0.13091 0.13091 0.13091 0.12 0 0.13091-0.065454 0.15273-0.27273l0.21818-1.8873c0.032727-0.29454-0.021818-0.29454-0.29454-0.29454h-5.3454c-0.21818 0-0.32727 0-0.32727 0.21818 0 0.12 0.098182 0.12 0.30545 0.12 0.40364 0 0.70909 0 0.70909 0.19636 0 0.043636 0 0.065454-0.054545 0.26182l-1.44 5.7709c-0.10909 0.42545-0.13091 0.51273-0.99273 0.51273-0.18545 0-0.30545 0-0.30545 0.20727 0 0.13091 0.13091 0.13091 0.16364 0.13091 0.31636 0 1.1236-0.032727 1.44-0.032727 0.36 0 1.2654 0.032727 1.6254 0.032727 0.098182 0 0.22909 0 0.22909-0.20727 0-0.087273-0.065454-0.10909-0.065454-0.12-0.032727-0.010909-0.054545-0.010909-0.30545-0.010909-0.24 0-0.29454 0-0.56727-0.021818-0.31636-0.032727-0.34909-0.076364-0.34909-0.21818 0-0.021818 0-0.087273 0.043636-0.25091l0.67636-2.7164z"/>
    <path id="a" d="m3.3054-3.4473h1.8545c1.5491 0 3.0654-1.1346 3.0654-2.3564 0-0.84-0.72-1.6473-2.1491-1.6473h-3.5345c-0.20727 0-0.32727 0-0.32727 0.20727 0 0.13091 0.098182 0.13091 0.31636 0.13091 0.14182 0 0.33818 0.010909 0.46909 0.021818 0.17454 0.021818 0.24 0.054545 0.24 0.17454 0 0.043636-0.010909 0.076364-0.043636 0.20727l-1.4618 5.8582c-0.10909 0.42545-0.13091 0.51273-0.99273 0.51273-0.18545 0-0.30545 0-0.30545 0.20727 0 0.13091 0.13091 0.13091 0.16364 0.13091 0.30545 0 1.08-0.032727 1.3854-0.032727 0.22909 0 0.46909 0.010909 0.69818 0.010909 0.24 0 0.48 0.021818 0.70909 0.021818 0.076364 0 0.21818 0 0.21818-0.21818 0-0.12-0.098182-0.12-0.30545-0.12-0.40364 0-0.70909 0-0.70909-0.19636 0-0.065454 0.021818-0.12 0.032727-0.18545l0.67636-2.7273zm0.78545-3.2509c0.098182-0.38182 0.12-0.41454 0.58909-0.41454h1.0473c0.90545 0 1.4836 0.29454 1.4836 1.0473 0 0.42545-0.21818 1.3636-0.64364 1.7564-0.54545 0.49091-1.2 0.57818-1.68 0.57818h-1.5382l0.74182-2.9673z"/>
  </defs>
  <use x="1872.02" y="1490.67" xlink:href="#b"/>
  <use x="1880.52" y="1490.67" xlink:href="#a"/>
</svg>
