<?xml version="1.0" encoding="UTF-8"?>
<svg width="450.5pt" height="32.85pt" version="1.1" viewBox="1872 1483.6 359.06 26.182" xmlns="http://www.w3.org/2000/svg" xmlns:xlink="http://www.w3.org/1999/xlink">
  <defs>
    <path id="r" d="m5.0836 23.585h-0.010909l-2.3564-10.931-1.4291 2.2473c-0.076364 0.098182-0.076364 0.12-0.076364 0.13091 0 0.043636 0.14182 0.16364 0.15273 0.17454l0.74182-1.1673 2.52 11.706c0.36 0 0.39273 0 0.45818-0.28364l6-25.451c0.021818-0.076364 0.043636-0.17454 0.043636-0.22909 0-0.12-0.087273-0.21818-0.21818-0.21818-0.17454 0-0.20727 0.14182-0.24 0.29454l-5.5854 23.727z"/>
    <path id="n" d="m2.5026-5.077c0-0.21519-0.01594-0.22316-0.23113-0.22316-0.32678 0.3188-0.74919 0.51009-1.5064 0.51009v0.26301c0.21519 0 0.64558 0 1.1078-0.21519v4.0887c0 0.29489-0.02391 0.39054-0.78107 0.39054h-0.27895v0.26301c0.32678-0.02391 1.0122-0.02391 1.3709-0.02391s1.052 0 1.3788 0.02391v-0.26301h-0.27895c-0.75716 0-0.78107-0.095641-0.78107-0.39054v-4.4234z"/>
    <path id="i" d="m2.2476-1.6259c0.12752-0.11955 0.46227-0.38256 0.58979-0.49415 0.49415-0.4543 0.96438-0.89265 0.96438-1.6179 0-0.94844-0.79701-1.5621-1.7933-1.5621-0.95641 0-1.586 0.72528-1.586 1.4346 0 0.39054 0.31083 0.44633 0.42242 0.44633 0.16737 0 0.41445-0.11955 0.41445-0.42242 0-0.41445-0.39851-0.41445-0.49415-0.41445 0.23113-0.58182 0.76513-0.78107 1.1557-0.78107 0.74122 0 1.1238 0.62964 1.1238 1.2991 0 0.82889-0.58182 1.4346-1.5223 2.399l-1.0042 1.0361c-0.095641 0.087671-0.095641 0.10361-0.095641 0.30286h3.1482l0.23113-1.4266h-0.24707c-0.02391 0.1594-0.087671 0.55791-0.18331 0.70934-0.047821 0.063761-0.65355 0.063761-0.78107 0.063761h-1.4187l1.076-0.97235z"/>
    <path id="d" d="m7.1891-2.5091c0.18545 0 0.38182 0 0.38182-0.21818s-0.19636-0.21818-0.38182-0.21818h-5.9018c-0.18545 0-0.38182 0-0.38182 0.21818s0.19636 0.21818 0.38182 0.21818h5.9018z"/>
    <path id="q" d="m2.0945-2.7273c0-0.31636-0.26182-0.57818-0.57818-0.57818s-0.57818 0.26182-0.57818 0.57818 0.26182 0.57818 0.57818 0.57818 0.57818-0.26182 0.57818-0.57818z"/>
    <path id="g" d="m1.9527-1.2546c-0.43636 0.73091-0.86182 0.88364-1.3418 0.91636-0.13091 0.010909-0.22909 0.010909-0.22909 0.21818 0 0.065454 0.054545 0.12 0.14182 0.12 0.29454 0 0.63273-0.032727 0.93818-0.032727 0.36 0 0.74182 0.032727 1.0909 0.032727 0.065454 0 0.20727 0 0.20727-0.20727 0-0.12-0.098182-0.13091-0.17454-0.13091-0.25091-0.021818-0.51273-0.10909-0.51273-0.38182 0-0.13091 0.065454-0.25091 0.15273-0.40364l0.82909-1.3964h2.7382c0.021818 0.22909 0.17454 1.7127 0.17454 1.8218 0 0.32727-0.56727 0.36-0.78545 0.36-0.15273 0-0.26182 0-0.26182 0.21818 0 0.12 0.13091 0.12 0.15273 0.12 0.44727 0 0.91636-0.032727 1.3636-0.032727 0.27273 0 0.96 0.032727 1.2327 0.032727 0.065454 0 0.19636 0 0.19636-0.21818 0-0.12-0.10909-0.12-0.25091-0.12-0.67636 0-0.67636-0.076364-0.70909-0.39273l-0.66545-6.8182c-0.021818-0.21818-0.021818-0.26182-0.20727-0.26182-0.17454 0-0.21818 0.076364-0.28364 0.18545l-3.7964 6.3709zm1.3091-1.6036 2.1491-3.6 0.34909 3.6h-2.4982z"/>
    <path id="f" d="m8.2909-7.5818c0-0.032727-0.021818-0.10909-0.12-0.10909-0.032727 0-0.043636 0.010909-0.16364 0.13091l-0.76364 0.84c-0.098182-0.15273-0.6-0.97091-1.8109-0.97091-2.4327 0-4.8873 2.4109-4.8873 4.9418 0 1.8 1.2873 2.9891 2.9564 2.9891 0.94909 0 1.7782-0.43636 2.3564-0.93818 1.0146-0.89454 1.2-1.8873 1.2-1.92 0-0.10909-0.10909-0.10909-0.13091-0.10909-0.065454 0-0.12 0.021818-0.14182 0.10909-0.098182 0.31636-0.34909 1.0909-1.1018 1.7236-0.75273 0.61091-1.44 0.79636-2.0073 0.79636-0.98182 0-2.1382-0.56727-2.1382-2.2691 0-0.62182 0.22909-2.3891 1.32-3.6654 0.66545-0.77454 1.6909-1.32 2.6618-1.32 1.1127 0 1.7564 0.84 1.7564 2.1054 0 0.43636-0.032727 0.44727-0.032727 0.55636s0.12 0.10909 0.16364 0.10909c0.14182 0 0.14182-0.021818 0.19636-0.21818l0.68727-2.7818z"/>
    <path id="p" d="m7.7236-2.5418c0.021818-0.054545 0.054545-0.13091 0.054545-0.15273 0-0.010909 0-0.12-0.13091-0.12-0.098182 0-0.12 0.065454-0.14182 0.13091-0.70909 1.6146-1.1127 2.3454-2.9782 2.3454h-1.5927c-0.15273 0-0.17454 0-0.24-0.010909-0.10909-0.010909-0.14182-0.021818-0.14182-0.10909 0-0.032727 0-0.054545 0.054545-0.25091l0.74182-2.9782h1.08c0.92727 0 0.92727 0.22909 0.92727 0.50182 0 0.076364 0 0.20727-0.076364 0.53454-0.021818 0.054545-0.032727 0.087273-0.032727 0.12 0 0.054545 0.043636 0.12 0.14182 0.12 0.087273 0 0.12-0.054545 0.16364-0.21818l0.62182-2.5527c0-0.065454-0.054545-0.12-0.13091-0.12-0.098182 0-0.12 0.065454-0.15273 0.19636-0.22909 0.82909-0.42545 1.08-1.4291 1.08h-1.0254l0.65454-2.6291c0.098182-0.38182 0.10909-0.42545 0.58909-0.42545h1.5382c1.3309 0 1.6582 0.31636 1.6582 1.2109 0 0.26182 0 0.28364-0.043636 0.57818 0 0.065454-0.010909 0.14182-0.010909 0.19636s0.032727 0.13091 0.13091 0.13091c0.12 0 0.13091-0.065454 0.15273-0.27273l0.21818-1.8873c0.032727-0.29454-0.021818-0.29454-0.29454-0.29454h-5.5091c-0.21818 0-0.32727 0-0.32727 0.21818 0 0.12 0.098182 0.12 0.30545 0.12 0.40364 0 0.70909 0 0.70909 0.19636 0 0.043636 0 0.065454-0.054545 0.26182l-1.44 5.7709c-0.10909 0.42545-0.13091 0.51273-0.99273 0.51273-0.18545 0-0.30545 0-0.30545 0.20727 0 0.13091 0.098182 0.13091 0.30545 0.13091h5.6618c0.25091 0 0.26182-0.010909 0.33818-0.18545l1.0036-2.3564z"/>
    <path id="l" d="m4.7782-0.065454c1.6909-0.64364 3.2945-2.5854 3.2945-4.6909 0-1.7564-1.1564-2.9345-2.7818-2.9345-2.3564 0-4.7564 2.4764-4.7564 5.0182 0 1.8109 1.2218 2.9127 2.7927 2.9127 0.27273 0 0.64364-0.043636 1.0691-0.16364-0.043636 0.67636-0.043636 0.69818-0.043636 0.84 0 0.34909 0 1.2 0.90545 1.2 1.2982 0 1.8218-1.9964 1.8218-2.1164 0-0.076364-0.076364-0.10909-0.12-0.10909-0.087273 0-0.10909 0.054545-0.13091 0.12-0.26182 0.77454-0.89454 1.0473-1.2764 1.0473-0.50182 0-0.66545-0.29454-0.77454-1.1236zm-2.0618-0.087273c-0.85091-0.33818-1.2218-1.1891-1.2218-2.1709 0-0.75273 0.28364-2.3018 1.1127-3.48 0.79636-1.1127 1.8218-1.6146 2.6182-1.6146 1.0909 0 1.8873 0.85091 1.8873 2.3127 0 1.0909-0.55636 3.6436-2.3891 4.6691-0.054545-0.38182-0.16364-1.1782-0.96-1.1782-0.57818 0-1.1127 0.54545-1.1127 1.1127 0 0.21818 0.065454 0.33818 0.065454 0.34909zm0.67636 0.12c-0.15273 0-0.50182 0-0.50182-0.46909 0-0.43636 0.41454-0.87273 0.87273-0.87273s0.66545 0.26182 0.66545 0.92727c0 0.16364-0.010909 0.17454-0.12 0.21818-0.28364 0.12-0.61091 0.19636-0.91636 0.19636z"/>
    <path id="o" d="m7.0364-7.5818c0-0.032727-0.021818-0.10909-0.12-0.10909-0.054545 0-0.065454 0.010909-0.19636 0.16364l-0.52364 0.62182c-0.28364-0.51273-0.85091-0.78545-1.56-0.78545-1.3854 0-2.6945 1.2546-2.6945 2.5745 0 0.88364 0.57818 1.3854 1.1346 1.5491l1.1673 0.30545c0.40364 0.098182 1.0036 0.26182 1.0036 1.1564 0 0.98182-0.89454 2.0073-1.9636 2.0073-0.69818 0-1.9091-0.24-1.9091-1.5927 0-0.26182 0.054545-0.52364 0.065454-0.58909 0.010909-0.043636 0.021818-0.054545 0.021818-0.076364 0-0.10909-0.076364-0.12-0.13091-0.12s-0.076364 0.010909-0.10909 0.043636c-0.043636 0.043636-0.65454 2.5309-0.65454 2.5636 0 0.065454 0.054545 0.10909 0.12 0.10909 0.054545 0 0.065454-0.010909 0.19636-0.16364l0.53454-0.62182c0.46909 0.63273 1.2109 0.78545 1.8436 0.78545 1.4836 0 2.7709-1.4509 2.7709-2.8036 0-0.75273-0.37091-1.1236-0.53454-1.2764-0.25091-0.25091-0.41454-0.29454-1.3854-0.54545-0.24-0.065454-0.63273-0.17454-0.73091-0.19636-0.29454-0.098182-0.66545-0.41454-0.66545-0.99273 0-0.88364 0.87273-1.8109 1.9091-1.8109 0.90545 0 1.5709 0.46909 1.5709 1.6909 0 0.34909-0.043636 0.54545-0.043636 0.61091 0 0.010909 0 0.10909 0.13091 0.10909 0.10909 0 0.12-0.032727 0.16364-0.21818l0.58909-2.3891z"/>
    <path id="e" d="m6.9273-6.3054c0.10909-0.44727 0.30545-0.77454 1.1782-0.80727 0.054545 0 0.18545-0.010909 0.18545-0.21818 0-0.010909 0-0.12-0.14182-0.12-0.36 0-0.74182 0.032727-1.1127 0.032727s-0.77454-0.032727-1.1346-0.032727c-0.065454 0-0.19636 0-0.19636 0.21818 0 0.12 0.10909 0.12 0.19636 0.12 0.62182 0.010909 0.74182 0.24 0.74182 0.48 0 0.032727-0.021818 0.19636-0.032727 0.22909l-0.98182 3.8945c-0.37091 1.4618-1.6254 2.4109-2.7164 2.4109-0.74182 0-1.3309-0.48-1.3309-1.4182 0-0.021818 0-0.37091 0.12-0.85091l1.0582-4.2436c0.098182-0.39273 0.12-0.50182 0.91636-0.50182 0.28364 0 0.37091 0 0.37091-0.21818 0-0.12-0.12-0.12-0.15273-0.12-0.30545 0-1.0909 0.032727-1.3964 0.032727-0.31636 0-1.0909-0.032727-1.4073-0.032727-0.087273 0-0.20727 0-0.20727 0.21818 0 0.12 0.098182 0.12 0.30545 0.12 0.021818 0 0.22909 0 0.41454 0.021818 0.19636 0.021818 0.29454 0.032727 0.29454 0.17454 0 0.065454-0.12 0.52364-0.18545 0.77454l-0.24 0.96c-0.098182 0.42545-0.62182 2.4873-0.66545 2.6945-0.076364 0.30545-0.076364 0.46909-0.076364 0.63273 0 1.3309 0.99273 2.0945 2.1382 2.0945 1.3746 0 2.7273-1.2327 3.0873-2.6727l0.97091-3.8727z"/>
    <path id="k" d="m4.0691-4.1236c-0.19636-0.40364-0.51273-0.69818-1.0036-0.69818-1.2764 0-2.6291 1.6036-2.6291 3.1964 0 1.0254 0.6 1.7454 1.4509 1.7454 0.21818 0 0.76364-0.043636 1.4182-0.81818 0.087273 0.45818 0.46909 0.81818 0.99273 0.81818 0.38182 0 0.63273-0.25091 0.80727-0.6 0.18545-0.39273 0.32727-1.0582 0.32727-1.08 0-0.10909-0.098182-0.10909-0.13091-0.10909-0.10909 0-0.12 0.043636-0.15273 0.19636-0.18545 0.70909-0.38182 1.3527-0.82909 1.3527-0.29454 0-0.32727-0.28364-0.32727-0.50182 0-0.24 0.021818-0.32727 0.14182-0.80727 0.12-0.45818 0.14182-0.56727 0.24-0.98182l0.39273-1.5273c0.076364-0.30545 0.076364-0.32727 0.076364-0.37091 0-0.18545-0.13091-0.29454-0.31636-0.29454-0.26182 0-0.42545 0.24-0.45818 0.48zm-0.70909 2.8254c-0.054545 0.19636-0.054545 0.21818-0.21818 0.40364-0.48 0.6-0.92727 0.77454-1.2327 0.77454-0.54545 0-0.69818-0.6-0.69818-1.0254 0-0.54545 0.34909-1.8873 0.6-2.3891 0.33818-0.64364 0.82909-1.0473 1.2654-1.0473 0.70909 0 0.86182 0.89454 0.86182 0.96s-0.021818 0.13091-0.032727 0.18545l-0.54545 2.1382z"/>
    <path id="a" d="m0.96-0.64364c-0.032727 0.16364-0.098182 0.41454-0.098182 0.46909 0 0.19636 0.15273 0.29454 0.31636 0.29454 0.13091 0 0.32727-0.087273 0.40364-0.30545 0.010909-0.021818 0.14182-0.53454 0.20727-0.80727l0.24-0.98182c0.065454-0.24 0.13091-0.48 0.18545-0.73091 0.043636-0.18545 0.13091-0.50182 0.14182-0.54545 0.16364-0.33818 0.74182-1.3309 1.7782-1.3309 0.49091 0 0.58909 0.40364 0.58909 0.76364 0 0.67636-0.53454 2.0727-0.70909 2.5418-0.098182 0.25091-0.10909 0.38182-0.10909 0.50182 0 0.51273 0.38182 0.89454 0.89454 0.89454 1.0254 0 1.4291-1.5927 1.4291-1.68 0-0.10909-0.098182-0.10909-0.13091-0.10909-0.10909 0-0.10909 0.032727-0.16364 0.19636-0.21818 0.74182-0.57818 1.3527-1.1127 1.3527-0.18545 0-0.26182-0.10909-0.26182-0.36 0-0.27273 0.098182-0.53454 0.19636-0.77454 0.20727-0.57818 0.66545-1.7782 0.66545-2.4 0-0.73091-0.46909-1.1673-1.2546-1.1673-0.98182 0-1.5164 0.69818-1.7018 0.94909-0.054545-0.61091-0.50182-0.94909-1.0036-0.94909s-0.70909 0.42545-0.81818 0.62182c-0.17454 0.37091-0.32727 1.0146-0.32727 1.0582 0 0.10909 0.10909 0.10909 0.13091 0.10909 0.10909 0 0.12-0.010909 0.18545-0.25091 0.18545-0.77454 0.40364-1.2982 0.79636-1.2982 0.21818 0 0.33818 0.14182 0.33818 0.50182 0 0.22909-0.032727 0.34909-0.17454 0.91636l-0.63273 2.52z"/>
    <path id="c" d="m3.6109 2.6182c0-0.032727 0-0.054545-0.18545-0.24-1.3636-1.3746-1.7127-3.4364-1.7127-5.1054 0-1.8982 0.41454-3.7964 1.7564-5.16 0.14182-0.13091 0.14182-0.15273 0.14182-0.18545 0-0.076364-0.043636-0.10909-0.10909-0.10909-0.10909 0-1.0909 0.74182-1.7345 2.1273-0.55636 1.2-0.68727 2.4109-0.68727 3.3273 0 0.85091 0.12 2.1709 0.72 3.4036 0.65454 1.3418 1.5927 2.0509 1.7018 2.0509 0.065454 0 0.10909-0.032727 0.10909-0.10909z"/>
    <path id="b" d="m3.1527-2.7273c0-0.85091-0.12-2.1709-0.72-3.4036-0.65454-1.3418-1.5927-2.0509-1.7018-2.0509-0.065454 0-0.10909 0.043636-0.10909 0.10909 0 0.032727 0 0.054545 0.20727 0.25091 1.0691 1.08 1.6909 2.8145 1.6909 5.0945 0 1.8654-0.40364 3.7854-1.7564 5.16-0.14182 0.13091-0.14182 0.15273-0.14182 0.18545 0 0.065454 0.043636 0.10909 0.10909 0.10909 0.10909 0 1.0909-0.74182 1.7345-2.1273 0.55636-1.2 0.68727-2.4109 0.68727-3.3273z"/>
    <path id="j" d="m4.4618-2.5091h3.0436c0.15273 0 0.36 0 0.36-0.21818s-0.20727-0.21818-0.36-0.21818h-3.0436v-3.0545c0-0.15273 0-0.36-0.21818-0.36s-0.21818 0.20727-0.21818 0.36v3.0545h-3.0545c-0.15273 0-0.36 0-0.36 0.21818s0.20727 0.21818 0.36 0.21818h3.0545v3.0545c0 0.15273 0 0.36 0.21818 0.36s0.21818-0.20727 0.21818-0.36v-3.0545z"/>
    <path id="h" d="m3.2073-6.9818c0-0.26182 0-0.28364-0.25091-0.28364-0.67636 0.69818-1.6364 0.69818-1.9854 0.69818v0.33818c0.21818 0 0.86182 0 1.4291-0.28364v5.6509c0 0.39273-0.032727 0.52364-1.0146 0.52364h-0.34909v0.33818c0.38182-0.032727 1.3309-0.032727 1.7673-0.032727s1.3854 0 1.7673 0.032727v-0.33818h-0.34909c-0.98182 0-1.0146-0.12-1.0146-0.52364v-6.12z"/>
    <path id="m" d="m7.4945-3.5673c0.16364 0 0.37091 0 0.37091-0.21818s-0.20727-0.21818-0.36-0.21818h-6.5345c-0.15273 0-0.36 0-0.36 0.21818s0.20727 0.21818 0.37091 0.21818h6.5127zm0.010909 2.1164c0.15273 0 0.36 0 0.36-0.21818s-0.20727-0.21818-0.37091-0.21818h-6.5127c-0.16364 0-0.37091 0-0.37091 0.21818s0.20727 0.21818 0.36 0.21818h6.5345z"/>
  </defs>
  <use x="1872.02" y="1501.86" xlink:href="#o"/>
  <use x="1879.31" y="1501.86" xlink:href="#p"/>
  <use x="1890.99" y="1501.86" xlink:href="#m"/>
  <use x="1902.48" y="1484.09" xlink:href="#r"/>
  <rect x="1913.4" y="1483.6" width="317.69" height=".43635"/>
  <use x="1914.58" y="1494.48" xlink:href="#g"/>
  <use x="1922.73" y="1494.48" xlink:href="#e"/>
  <use x="1931.34" y="1494.48" xlink:href="#f"/>
  <use x="1939.89" y="1494.48" xlink:href="#c"/>
  <use x="1944.12" y="1494.48" xlink:href="#h"/>
  <use x="1951.98" y="1494.48" xlink:href="#d"/>
  <use x="1962.85" y="1494.48" xlink:href="#g"/>
  <use x="1971.01" y="1494.48" xlink:href="#e"/>
  <use x="1979.62" y="1494.48" xlink:href="#f"/>
  <use x="1988.16" y="1494.48" xlink:href="#b"/>
  <use x="1994.81" y="1494.48" xlink:href="#j"/>
  <use x="2005.69" y="1494.48" xlink:href="#c"/>
  <use x="2009.92" y="1494.48" xlink:href="#a"/>
  <use x="2016.44" y="1494.48" xlink:href="#k"/>
  <use x="2024.61" y="1494.48" xlink:href="#d"/>
  <use x="2035.49" y="1494.48" xlink:href="#h"/>
  <use x="2040.92" y="1494.48" xlink:href="#b"/>
  <use x="2045.15" y="1494.48" xlink:href="#c"/>
  <use x="2049.38" y="1494.48" xlink:href="#l"/>
  <use x="2057.97" y="1496.12" xlink:href="#n"/>
  <use x="2065.12" y="1494.48" xlink:href="#d"/>
  <use x="2076" y="1494.48" xlink:href="#g"/>
  <use x="2084.15" y="1494.48" xlink:href="#e"/>
  <use x="2092.76" y="1494.48" xlink:href="#f"/>
  <use x="2101.31" y="1491.33" xlink:href="#i"/>
  <use x="2106.04" y="1494.48" xlink:href="#b"/>
  <use x="2112.69" y="1494.48" xlink:href="#j"/>
  <use x="2123.57" y="1494.48" xlink:href="#c"/>
  <use x="2127.8" y="1494.48" xlink:href="#a"/>
  <use x="2134.32" y="1494.48" xlink:href="#a"/>
  <use x="2143.27" y="1494.48" xlink:href="#d"/>
  <use x="2154.15" y="1494.48" xlink:href="#h"/>
  <use x="2159.58" y="1494.48" xlink:href="#b"/>
  <use x="2163.81" y="1494.48" xlink:href="#c"/>
  <use x="2168.03" y="1494.48" xlink:href="#l"/>
  <use x="2176.63" y="1496.12" xlink:href="#i"/>
  <use x="2183.78" y="1494.48" xlink:href="#d"/>
  <use x="2194.66" y="1494.48" xlink:href="#g"/>
  <use x="2202.81" y="1494.48" xlink:href="#e"/>
  <use x="2211.42" y="1494.48" xlink:href="#f"/>
  <use x="2219.97" y="1491.33" xlink:href="#i"/>
  <use x="2224.7" y="1494.48" xlink:href="#b"/>
  <rect x="1914.6" y="1498.9" width="315.3" height=".43635"/>
  <use x="2055.59" y="1509.34" xlink:href="#a"/>
  <use x="2062.11" y="1509.34" xlink:href="#k"/>
  <use x="2070.28" y="1509.34" xlink:href="#q"/>
  <use x="2075.72" y="1509.34" xlink:href="#a"/>
  <use x="2082.25" y="1509.34" xlink:href="#a"/>
</svg>
