<?xml version="1.0" encoding="UTF-8"?>
<svg width="17.833pt" height="9.3486pt" version="1.1" viewBox="1872 1483.2 14.213 7.4509" xmlns="http://www.w3.org/2000/svg" xmlns:xlink="http://www.w3.org/1999/xlink">
  <defs>
    <path id="b" d="m1.7454-0.85091c-0.10909 0.42545-0.13091 0.51273-0.99273 0.51273-0.18545 0-0.29454 0-0.29454 0.21818 0 0.12 0.098182 0.12 0.29454 0.12h3.8945c1.7236 0 3.0109-1.2873 3.0109-2.3564 0-0.78545-0.63273-1.4182-1.6909-1.5382 1.1346-0.20727 2.28-1.0146 2.28-2.0509 0-0.80727-0.72-1.5054-2.0291-1.5054h-3.6654c-0.20727 0-0.31636 0-0.31636 0.21818 0 0.12 0.098182 0.12 0.30545 0.12 0.021818 0 0.22909 0 0.41454 0.021818 0.19636 0.021818 0.29454 0.032727 0.29454 0.17454 0 0.043636-0.010909 0.076364-0.043636 0.20727l-1.4618 5.8582zm1.6473-3.1418 0.67636-2.7054c0.098182-0.38182 0.12-0.41454 0.58909-0.41454h1.4073c0.96 0 1.1891 0.64364 1.1891 1.1236 0 0.96-0.93818 1.9964-2.2691 1.9964h-1.5927zm-0.49091 3.6545c-0.15273 0-0.17454 0-0.24-0.010909-0.10909-0.010909-0.14182-0.021818-0.14182-0.10909 0-0.032727 0-0.054545 0.054545-0.25091l0.75273-3.0436h2.0618c1.0473 0 1.2546 0.80727 1.2546 1.2764 0 1.08-0.97091 2.1382-2.2582 2.1382h-1.4836z"/>
    <path id="a" d="m4.08-6.6109c0.098182-0.39273 0.13091-0.50182 0.99273-0.50182 0.26182 0 0.34909 0 0.34909-0.20727 0-0.13091-0.12-0.13091-0.16364-0.13091-0.31636 0-1.1236 0.032727-1.44 0.032727-0.32727 0-1.1236-0.032727-1.4509-0.032727-0.076364 0-0.21818 0-0.21818 0.21818 0 0.12 0.098182 0.12 0.30545 0.12 0.45818 0 0.75273 0 0.75273 0.20727 0 0.054545 0 0.076364-0.021818 0.17454l-1.4727 5.88c-0.098182 0.40364-0.13091 0.51273-0.99273 0.51273-0.25091 0-0.34909 0-0.34909 0.21818 0 0.12 0.13091 0.12 0.16364 0.12 0.31636 0 1.1127-0.032727 1.4291-0.032727 0.32727 0 1.1346 0.032727 1.4618 0.032727 0.087273 0 0.21818 0 0.21818-0.20727 0-0.13091-0.087273-0.13091-0.32727-0.13091-0.19636 0-0.25091 0-0.46909-0.021818-0.22909-0.021818-0.27273-0.065454-0.27273-0.18545 0-0.087273 0.021818-0.17454 0.043636-0.25091l1.4618-5.8145z"/>
  </defs>
  <use x="1872.02" y="1490.67" xlink:href="#b"/>
  <use x="1880.81" y="1490.67" xlink:href="#a"/>
</svg>
