<?xml version="1.0" encoding="UTF-8"?>
<svg width="130.61pt" height="12.442pt" version="1.1" viewBox="1872 1482.9 104.1 9.9164" xmlns="http://www.w3.org/2000/svg" xmlns:xlink="http://www.w3.org/1999/xlink">
  <defs>
    <path id="l" d="m4.4618-3.4145h3.0327c0.18545 0 0.38182 0 0.38182-0.21818s-0.19636-0.21818-0.38182-0.21818h-3.0327v-3.0109c0-0.17454 0-0.40364-0.21818-0.40364s-0.21818 0.19636-0.21818 0.37091v3.0436h-3.0436c-0.18545 0-0.38182 0-0.38182 0.21818s0.19636 0.21818 0.38182 0.21818h3.0436v2.9782h-3.0436c-0.18545 0-0.38182 0-0.38182 0.21818s0.19636 0.21818 0.38182 0.21818h6.5127c0.18545 0 0.38182 0 0.38182-0.21818s-0.19636-0.21818-0.38182-0.21818h-3.0327v-2.9782z"/>
    <path id="e" d="m3.2073-6.9818c0-0.26182 0-0.28364-0.25091-0.28364-0.67636 0.69818-1.6364 0.69818-1.9854 0.69818v0.33818c0.21818 0 0.86182 0 1.4291-0.28364v5.6509c0 0.39273-0.032727 0.52364-1.0146 0.52364h-0.34909v0.33818c0.38182-0.032727 1.3309-0.032727 1.7673-0.032727s1.3854 0 1.7673 0.032727v-0.33818h-0.34909c-0.98182 0-1.0146-0.12-1.0146-0.52364v-6.12z"/>
    <path id="d" d="m1.44-3.5782v-0.26182c0-2.76 1.3527-3.1527 1.9091-3.1527 0.26182 0 0.72 0.065454 0.96 0.43636-0.16364 0-0.6 0-0.6 0.49091 0 0.33818 0.26182 0.50182 0.50182 0.50182 0.17454 0 0.50182-0.098182 0.50182-0.52364 0-0.65454-0.48-1.1782-1.3854-1.1782-1.3964 0-2.8691 1.4073-2.8691 3.8182 0 2.9127 1.2654 3.6873 2.28 3.6873 1.2109 0 2.2473-1.0254 2.2473-2.4654 0-1.3854-0.97091-2.4327-2.1818-2.4327-0.74182 0-1.1454 0.55636-1.3636 1.08zm1.2982 3.5127c-0.68727 0-1.0146-0.65454-1.08-0.81818-0.19636-0.51273-0.19636-1.3854-0.19636-1.5818 0-0.85091 0.34909-1.9418 1.3309-1.9418 0.17454 0 0.67636 0 1.0146 0.67636 0.19636 0.40364 0.19636 0.96 0.19636 1.4946 0 0.52364 0 1.0691-0.18545 1.4618-0.32727 0.65454-0.82909 0.70909-1.08 0.70909z"/>
    <path id="c" d="m4.0036-3.4691v0.34909c0 2.5527-1.1346 3.0545-1.7673 3.0545-0.18545 0-0.77454-0.021818-1.0691-0.39273 0.48 0 0.56727-0.31636 0.56727-0.50182 0-0.33818-0.26182-0.50182-0.50182-0.50182-0.17454 0-0.50182 0.098182-0.50182 0.52364 0 0.73091 0.58909 1.1782 1.5164 1.1782 1.4073 0 2.7382-1.4836 2.7382-3.8291 0-2.9345-1.2546-3.6764-2.2254-3.6764-0.6 0-1.1346 0.19636-1.6036 0.68727-0.44727 0.49091-0.69818 0.94909-0.69818 1.7673 0 1.3636 0.96 2.4327 2.1818 2.4327 0.66545 0 1.1127-0.45818 1.3636-1.0909zm-1.3527 0.84c-0.17454 0-0.67636 0-1.0146-0.68727-0.19636-0.40364-0.19636-0.94909-0.19636-1.4836 0-0.58909 0-1.1018 0.22909-1.5054 0.29454-0.54545 0.70909-0.68727 1.0909-0.68727 0.50182 0 0.86182 0.37091 1.0473 0.86182 0.13091 0.34909 0.17454 1.0364 0.17454 1.5382 0 0.90545-0.37091 1.9636-1.3309 1.9636z"/>
    <path id="b" d="m7.4945-3.5673c0.16364 0 0.37091 0 0.37091-0.21818s-0.20727-0.21818-0.36-0.21818h-6.5345c-0.15273 0-0.36 0-0.36 0.21818s0.20727 0.21818 0.37091 0.21818h6.5127zm0.010909 2.1164c0.15273 0 0.36 0 0.36-0.21818s-0.20727-0.21818-0.37091-0.21818h-6.5127c-0.16364 0-0.37091 0-0.37091 0.21818s0.20727 0.21818 0.36 0.21818h6.5345z"/>
    <path id="k" d="m2.2145-0.010909c0-0.72-0.27273-1.1454-0.69818-1.1454-0.36 0-0.57818 0.27273-0.57818 0.57818 0 0.29454 0.21818 0.57818 0.57818 0.57818 0.13091 0 0.27273-0.043636 0.38182-0.14182 0.032727-0.021818 0.043636-0.032727 0.054545-0.032727s0.021818 0.010909 0.021818 0.16364c0 0.80727-0.38182 1.4618-0.74182 1.8218-0.12 0.12-0.12 0.14182-0.12 0.17454 0 0.076364 0.054545 0.12 0.10909 0.12 0.12 0 0.99273-0.84 0.99273-2.1164z"/>
    <path id="j" d="m1.9527-1.2546c-0.43636 0.73091-0.86182 0.88364-1.3418 0.91636-0.13091 0.010909-0.22909 0.010909-0.22909 0.21818 0 0.065454 0.054545 0.12 0.14182 0.12 0.29454 0 0.63273-0.032727 0.93818-0.032727 0.36 0 0.74182 0.032727 1.0909 0.032727 0.065454 0 0.20727 0 0.20727-0.20727 0-0.12-0.098182-0.13091-0.17454-0.13091-0.25091-0.021818-0.51273-0.10909-0.51273-0.38182 0-0.13091 0.065454-0.25091 0.15273-0.40364l0.82909-1.3964h2.7382c0.021818 0.22909 0.17454 1.7127 0.17454 1.8218 0 0.32727-0.56727 0.36-0.78545 0.36-0.15273 0-0.26182 0-0.26182 0.21818 0 0.12 0.13091 0.12 0.15273 0.12 0.44727 0 0.91636-0.032727 1.3636-0.032727 0.27273 0 0.96 0.032727 1.2327 0.032727 0.065454 0 0.19636 0 0.19636-0.21818 0-0.12-0.10909-0.12-0.25091-0.12-0.67636 0-0.67636-0.076364-0.70909-0.39273l-0.66545-6.8182c-0.021818-0.21818-0.021818-0.26182-0.20727-0.26182-0.17454 0-0.21818 0.076364-0.28364 0.18545l-3.7964 6.3709zm1.3091-1.6036 2.1491-3.6 0.34909 3.6h-2.4982z"/>
    <path id="a" d="m8.2909-7.5818c0-0.032727-0.021818-0.10909-0.12-0.10909-0.032727 0-0.043636 0.010909-0.16364 0.13091l-0.76364 0.84c-0.098182-0.15273-0.6-0.97091-1.8109-0.97091-2.4327 0-4.8873 2.4109-4.8873 4.9418 0 1.8 1.2873 2.9891 2.9564 2.9891 0.94909 0 1.7782-0.43636 2.3564-0.93818 1.0146-0.89454 1.2-1.8873 1.2-1.92 0-0.10909-0.10909-0.10909-0.13091-0.10909-0.065454 0-0.12 0.021818-0.14182 0.10909-0.098182 0.31636-0.34909 1.0909-1.1018 1.7236-0.75273 0.61091-1.44 0.79636-2.0073 0.79636-0.98182 0-2.1382-0.56727-2.1382-2.2691 0-0.62182 0.22909-2.3891 1.32-3.6654 0.66545-0.77454 1.6909-1.32 2.6618-1.32 1.1127 0 1.7564 0.84 1.7564 2.1054 0 0.43636-0.032727 0.44727-0.032727 0.55636s0.12 0.10909 0.16364 0.10909c0.14182 0 0.14182-0.021818 0.19636-0.21818l0.68727-2.7818z"/>
    <path id="i" d="m7.7236-2.5418c0.021818-0.054545 0.054545-0.13091 0.054545-0.15273 0-0.010909 0-0.12-0.13091-0.12-0.098182 0-0.12 0.065454-0.14182 0.13091-0.70909 1.6146-1.1127 2.3454-2.9782 2.3454h-1.5927c-0.15273 0-0.17454 0-0.24-0.010909-0.10909-0.010909-0.14182-0.021818-0.14182-0.10909 0-0.032727 0-0.054545 0.054545-0.25091l0.74182-2.9782h1.08c0.92727 0 0.92727 0.22909 0.92727 0.50182 0 0.076364 0 0.20727-0.076364 0.53454-0.021818 0.054545-0.032727 0.087273-0.032727 0.12 0 0.054545 0.043636 0.12 0.14182 0.12 0.087273 0 0.12-0.054545 0.16364-0.21818l0.62182-2.5527c0-0.065454-0.054545-0.12-0.13091-0.12-0.098182 0-0.12 0.065454-0.15273 0.19636-0.22909 0.82909-0.42545 1.08-1.4291 1.08h-1.0254l0.65454-2.6291c0.098182-0.38182 0.10909-0.42545 0.58909-0.42545h1.5382c1.3309 0 1.6582 0.31636 1.6582 1.2109 0 0.26182 0 0.28364-0.043636 0.57818 0 0.065454-0.010909 0.14182-0.010909 0.19636s0.032727 0.13091 0.13091 0.13091c0.12 0 0.13091-0.065454 0.15273-0.27273l0.21818-1.8873c0.032727-0.29454-0.021818-0.29454-0.29454-0.29454h-5.5091c-0.21818 0-0.32727 0-0.32727 0.21818 0 0.12 0.098182 0.12 0.30545 0.12 0.40364 0 0.70909 0 0.70909 0.19636 0 0.043636 0 0.065454-0.054545 0.26182l-1.44 5.7709c-0.10909 0.42545-0.13091 0.51273-0.99273 0.51273-0.18545 0-0.30545 0-0.30545 0.20727 0 0.13091 0.098182 0.13091 0.30545 0.13091h5.6618c0.25091 0 0.26182-0.010909 0.33818-0.18545l1.0036-2.3564z"/>
    <path id="h" d="m4.08-6.6109c0.098182-0.39273 0.13091-0.50182 0.99273-0.50182 0.26182 0 0.34909 0 0.34909-0.20727 0-0.13091-0.12-0.13091-0.16364-0.13091-0.31636 0-1.1236 0.032727-1.44 0.032727-0.32727 0-1.1236-0.032727-1.4509-0.032727-0.076364 0-0.21818 0-0.21818 0.21818 0 0.12 0.098182 0.12 0.30545 0.12 0.45818 0 0.75273 0 0.75273 0.20727 0 0.054545 0 0.076364-0.021818 0.17454l-1.4727 5.88c-0.098182 0.40364-0.13091 0.51273-0.99273 0.51273-0.25091 0-0.34909 0-0.34909 0.21818 0 0.12 0.13091 0.12 0.16364 0.12 0.31636 0 1.1127-0.032727 1.4291-0.032727 0.32727 0 1.1346 0.032727 1.4618 0.032727 0.087273 0 0.21818 0 0.21818-0.20727 0-0.13091-0.087273-0.13091-0.32727-0.13091-0.19636 0-0.25091 0-0.46909-0.021818-0.22909-0.021818-0.27273-0.065454-0.27273-0.18545 0-0.087273 0.021818-0.17454 0.043636-0.25091l1.4618-5.8145z"/>
    <path id="g" d="m7.0364-7.5818c0-0.032727-0.021818-0.10909-0.12-0.10909-0.054545 0-0.065454 0.010909-0.19636 0.16364l-0.52364 0.62182c-0.28364-0.51273-0.85091-0.78545-1.56-0.78545-1.3854 0-2.6945 1.2546-2.6945 2.5745 0 0.88364 0.57818 1.3854 1.1346 1.5491l1.1673 0.30545c0.40364 0.098182 1.0036 0.26182 1.0036 1.1564 0 0.98182-0.89454 2.0073-1.9636 2.0073-0.69818 0-1.9091-0.24-1.9091-1.5927 0-0.26182 0.054545-0.52364 0.065454-0.58909 0.010909-0.043636 0.021818-0.054545 0.021818-0.076364 0-0.10909-0.076364-0.12-0.13091-0.12s-0.076364 0.010909-0.10909 0.043636c-0.043636 0.043636-0.65454 2.5309-0.65454 2.5636 0 0.065454 0.054545 0.10909 0.12 0.10909 0.054545 0 0.065454-0.010909 0.19636-0.16364l0.53454-0.62182c0.46909 0.63273 1.2109 0.78545 1.8436 0.78545 1.4836 0 2.7709-1.4509 2.7709-2.8036 0-0.75273-0.37091-1.1236-0.53454-1.2764-0.25091-0.25091-0.41454-0.29454-1.3854-0.54545-0.24-0.065454-0.63273-0.17454-0.73091-0.19636-0.29454-0.098182-0.66545-0.41454-0.66545-0.99273 0-0.88364 0.87273-1.8109 1.9091-1.8109 0.90545 0 1.5709 0.46909 1.5709 1.6909 0 0.34909-0.043636 0.54545-0.043636 0.61091 0 0.010909 0 0.10909 0.13091 0.10909 0.10909 0 0.12-0.032727 0.16364-0.21818l0.58909-2.3891z"/>
    <path id="f" d="m6.9273-6.3054c0.10909-0.44727 0.30545-0.77454 1.1782-0.80727 0.054545 0 0.18545-0.010909 0.18545-0.21818 0-0.010909 0-0.12-0.14182-0.12-0.36 0-0.74182 0.032727-1.1127 0.032727s-0.77454-0.032727-1.1346-0.032727c-0.065454 0-0.19636 0-0.19636 0.21818 0 0.12 0.10909 0.12 0.19636 0.12 0.62182 0.010909 0.74182 0.24 0.74182 0.48 0 0.032727-0.021818 0.19636-0.032727 0.22909l-0.98182 3.8945c-0.37091 1.4618-1.6254 2.4109-2.7164 2.4109-0.74182 0-1.3309-0.48-1.3309-1.4182 0-0.021818 0-0.37091 0.12-0.85091l1.0582-4.2436c0.098182-0.39273 0.12-0.50182 0.91636-0.50182 0.28364 0 0.37091 0 0.37091-0.21818 0-0.12-0.12-0.12-0.15273-0.12-0.30545 0-1.0909 0.032727-1.3964 0.032727-0.31636 0-1.0909-0.032727-1.4073-0.032727-0.087273 0-0.20727 0-0.20727 0.21818 0 0.12 0.098182 0.12 0.30545 0.12 0.021818 0 0.22909 0 0.41454 0.021818 0.19636 0.021818 0.29454 0.032727 0.29454 0.17454 0 0.065454-0.12 0.52364-0.18545 0.77454l-0.24 0.96c-0.098182 0.42545-0.62182 2.4873-0.66545 2.6945-0.076364 0.30545-0.076364 0.46909-0.076364 0.63273 0 1.3309 0.99273 2.0945 2.1382 2.0945 1.3746 0 2.7273-1.2327 3.0873-2.6727l0.97091-3.8727z"/>
  </defs>
  <use x="1872.02" y="1490.67" xlink:href="#a"/>
  <use x="1880.57" y="1490.67" xlink:href="#h"/>
  <use x="1889.23" y="1490.67" xlink:href="#b"/>
  <use x="1900.72" y="1490.67" xlink:href="#j"/>
  <use x="1908.87" y="1490.67" xlink:href="#f"/>
  <use x="1917.48" y="1490.67" xlink:href="#a"/>
  <use x="1928.45" y="1490.67" xlink:href="#l"/>
  <use x="1939.33" y="1490.67" xlink:href="#e"/>
  <use x="1944.76" y="1490.67" xlink:href="#k"/>
  <use x="1949.6" y="1490.67" xlink:href="#c"/>
  <use x="1955.03" y="1490.67" xlink:href="#d"/>
  <use x="1960.47" y="1490.67" xlink:href="#g"/>
  <use x="1967.76" y="1490.67" xlink:href="#i"/>
</svg>
