<?xml version="1.0" encoding="UTF-8"?>
<svg width="98.363pt" height="28.75pt" version="1.1" viewBox="1872 1482.9 78.396 22.914" xmlns="http://www.w3.org/2000/svg" xmlns:xlink="http://www.w3.org/1999/xlink">
  <defs>
    <path id="k" d="m7.1891-2.5091c0.18545 0 0.38182 0 0.38182-0.21818s-0.19636-0.21818-0.38182-0.21818h-5.9018c-0.18545 0-0.38182 0-0.38182 0.21818s0.19636 0.21818 0.38182 0.21818h5.9018z"/>
    <path id="c" d="m5.0182-3.4909c0-0.87273-0.054545-1.7454-0.43636-2.5527-0.50182-1.0473-1.3964-1.2218-1.8545-1.2218-0.65454 0-1.4509 0.28364-1.8982 1.2982-0.34909 0.75273-0.40364 1.6036-0.40364 2.4764 0 0.81818 0.043636 1.8 0.49091 2.6291 0.46909 0.88364 1.2654 1.1018 1.8 1.1018 0.58909 0 1.4182-0.22909 1.8982-1.2654 0.34909-0.75273 0.40364-1.6036 0.40364-2.4654zm-2.3018 3.4909c-0.42545 0-1.0691-0.27273-1.2654-1.32-0.12-0.65454-0.12-1.6582-0.12-2.3018 0-0.69818 0-1.4182 0.087273-2.0073 0.20727-1.2982 1.0254-1.3964 1.2982-1.3964 0.36 0 1.08 0.19636 1.2873 1.2764 0.10909 0.61091 0.10909 1.44 0.10909 2.1273 0 0.81818 0 1.56-0.12 2.2582-0.16364 1.0364-0.78545 1.3636-1.2764 1.3636z"/>
    <path id="b" d="m4.8982-2.1927c0-1.2982-0.89454-2.3891-2.0727-2.3891-0.52364 0-0.99273 0.17454-1.3854 0.55636v-2.1273c0.21818 0.065454 0.57818 0.14182 0.92727 0.14182 1.3418 0 2.1054-0.99273 2.1054-1.1346 0-0.065454-0.032727-0.12-0.10909-0.12-0.010909 0-0.032727 0-0.087273 0.032727-0.21818 0.098182-0.75273 0.31636-1.4836 0.31636-0.43636 0-0.93818-0.076364-1.4509-0.30545-0.087273-0.032727-0.10909-0.032727-0.13091-0.032727-0.10909 0-0.10909 0.087273-0.10909 0.26182v3.2291c0 0.19636 0 0.28364 0.15273 0.28364 0.076364 0 0.098182-0.032727 0.14182-0.098182 0.12-0.17454 0.52364-0.76364 1.4073-0.76364 0.56727 0 0.84 0.50182 0.92727 0.69818 0.17454 0.40364 0.19636 0.82909 0.19636 1.3746 0 0.38182 0 1.0364-0.26182 1.4946-0.26182 0.42545-0.66545 0.70909-1.1673 0.70909-0.79636 0-1.4182-0.57818-1.6036-1.2218 0.032727 0.010909 0.065454 0.021818 0.18545 0.021818 0.36 0 0.54545-0.27273 0.54545-0.53454s-0.18545-0.53454-0.54545-0.53454c-0.15273 0-0.53454 0.076364-0.53454 0.57818 0 0.93818 0.75273 1.9964 1.9745 1.9964 1.2654 0 2.3782-1.0473 2.3782-2.4327z"/>
    <path id="a" d="m7.4945-3.5673c0.16364 0 0.37091 0 0.37091-0.21818s-0.20727-0.21818-0.36-0.21818h-6.5345c-0.15273 0-0.36 0-0.36 0.21818s0.20727 0.21818 0.37091 0.21818h6.5127zm0.010909 2.1164c0.15273 0 0.36 0 0.36-0.21818s-0.20727-0.21818-0.37091-0.21818h-6.5127c-0.16364 0-0.37091 0-0.37091 0.21818s0.20727 0.21818 0.36 0.21818h6.5345z"/>
    <path id="j" d="m2.2145-0.010909c0-0.72-0.27273-1.1454-0.69818-1.1454-0.36 0-0.57818 0.27273-0.57818 0.57818 0 0.29454 0.21818 0.57818 0.57818 0.57818 0.13091 0 0.27273-0.043636 0.38182-0.14182 0.032727-0.021818 0.043636-0.032727 0.054545-0.032727s0.021818 0.010909 0.021818 0.16364c0 0.80727-0.38182 1.4618-0.74182 1.8218-0.12 0.12-0.12 0.14182-0.12 0.17454 0 0.076364 0.054545 0.12 0.10909 0.12 0.12 0 0.99273-0.84 0.99273-2.1164z"/>
    <path id="i" d="m1.9527-1.2546c-0.43636 0.73091-0.86182 0.88364-1.3418 0.91636-0.13091 0.010909-0.22909 0.010909-0.22909 0.21818 0 0.065454 0.054545 0.12 0.14182 0.12 0.29454 0 0.63273-0.032727 0.93818-0.032727 0.36 0 0.74182 0.032727 1.0909 0.032727 0.065454 0 0.20727 0 0.20727-0.20727 0-0.12-0.098182-0.13091-0.17454-0.13091-0.25091-0.021818-0.51273-0.10909-0.51273-0.38182 0-0.13091 0.065454-0.25091 0.15273-0.40364l0.82909-1.3964h2.7382c0.021818 0.22909 0.17454 1.7127 0.17454 1.8218 0 0.32727-0.56727 0.36-0.78545 0.36-0.15273 0-0.26182 0-0.26182 0.21818 0 0.12 0.13091 0.12 0.15273 0.12 0.44727 0 0.91636-0.032727 1.3636-0.032727 0.27273 0 0.96 0.032727 1.2327 0.032727 0.065454 0 0.19636 0 0.19636-0.21818 0-0.12-0.10909-0.12-0.25091-0.12-0.67636 0-0.67636-0.076364-0.70909-0.39273l-0.66545-6.8182c-0.021818-0.21818-0.021818-0.26182-0.20727-0.26182-0.17454 0-0.21818 0.076364-0.28364 0.18545l-3.7964 6.3709zm1.3091-1.6036 2.1491-3.6 0.34909 3.6h-2.4982z"/>
    <path id="h" d="m8.2909-7.5818c0-0.032727-0.021818-0.10909-0.12-0.10909-0.032727 0-0.043636 0.010909-0.16364 0.13091l-0.76364 0.84c-0.098182-0.15273-0.6-0.97091-1.8109-0.97091-2.4327 0-4.8873 2.4109-4.8873 4.9418 0 1.8 1.2873 2.9891 2.9564 2.9891 0.94909 0 1.7782-0.43636 2.3564-0.93818 1.0146-0.89454 1.2-1.8873 1.2-1.92 0-0.10909-0.10909-0.10909-0.13091-0.10909-0.065454 0-0.12 0.021818-0.14182 0.10909-0.098182 0.31636-0.34909 1.0909-1.1018 1.7236-0.75273 0.61091-1.44 0.79636-2.0073 0.79636-0.98182 0-2.1382-0.56727-2.1382-2.2691 0-0.62182 0.22909-2.3891 1.32-3.6654 0.66545-0.77454 1.6909-1.32 2.6618-1.32 1.1127 0 1.7564 0.84 1.7564 2.1054 0 0.43636-0.032727 0.44727-0.032727 0.55636s0.12 0.10909 0.16364 0.10909c0.14182 0 0.14182-0.021818 0.19636-0.21818l0.68727-2.7818z"/>
    <path id="g" d="m7.7236-2.5418c0.021818-0.054545 0.054545-0.13091 0.054545-0.15273 0-0.010909 0-0.12-0.13091-0.12-0.098182 0-0.12 0.065454-0.14182 0.13091-0.70909 1.6146-1.1127 2.3454-2.9782 2.3454h-1.5927c-0.15273 0-0.17454 0-0.24-0.010909-0.10909-0.010909-0.14182-0.021818-0.14182-0.10909 0-0.032727 0-0.054545 0.054545-0.25091l0.74182-2.9782h1.08c0.92727 0 0.92727 0.22909 0.92727 0.50182 0 0.076364 0 0.20727-0.076364 0.53454-0.021818 0.054545-0.032727 0.087273-0.032727 0.12 0 0.054545 0.043636 0.12 0.14182 0.12 0.087273 0 0.12-0.054545 0.16364-0.21818l0.62182-2.5527c0-0.065454-0.054545-0.12-0.13091-0.12-0.098182 0-0.12 0.065454-0.15273 0.19636-0.22909 0.82909-0.42545 1.08-1.4291 1.08h-1.0254l0.65454-2.6291c0.098182-0.38182 0.10909-0.42545 0.58909-0.42545h1.5382c1.3309 0 1.6582 0.31636 1.6582 1.2109 0 0.26182 0 0.28364-0.043636 0.57818 0 0.065454-0.010909 0.14182-0.010909 0.19636s0.032727 0.13091 0.13091 0.13091c0.12 0 0.13091-0.065454 0.15273-0.27273l0.21818-1.8873c0.032727-0.29454-0.021818-0.29454-0.29454-0.29454h-5.5091c-0.21818 0-0.32727 0-0.32727 0.21818 0 0.12 0.098182 0.12 0.30545 0.12 0.40364 0 0.70909 0 0.70909 0.19636 0 0.043636 0 0.065454-0.054545 0.26182l-1.44 5.7709c-0.10909 0.42545-0.13091 0.51273-0.99273 0.51273-0.18545 0-0.30545 0-0.30545 0.20727 0 0.13091 0.098182 0.13091 0.30545 0.13091h5.6618c0.25091 0 0.26182-0.010909 0.33818-0.18545l1.0036-2.3564z"/>
    <path id="f" d="m7.0364-7.5818c0-0.032727-0.021818-0.10909-0.12-0.10909-0.054545 0-0.065454 0.010909-0.19636 0.16364l-0.52364 0.62182c-0.28364-0.51273-0.85091-0.78545-1.56-0.78545-1.3854 0-2.6945 1.2546-2.6945 2.5745 0 0.88364 0.57818 1.3854 1.1346 1.5491l1.1673 0.30545c0.40364 0.098182 1.0036 0.26182 1.0036 1.1564 0 0.98182-0.89454 2.0073-1.9636 2.0073-0.69818 0-1.9091-0.24-1.9091-1.5927 0-0.26182 0.054545-0.52364 0.065454-0.58909 0.010909-0.043636 0.021818-0.054545 0.021818-0.076364 0-0.10909-0.076364-0.12-0.13091-0.12s-0.076364 0.010909-0.10909 0.043636c-0.043636 0.043636-0.65454 2.5309-0.65454 2.5636 0 0.065454 0.054545 0.10909 0.12 0.10909 0.054545 0 0.065454-0.010909 0.19636-0.16364l0.53454-0.62182c0.46909 0.63273 1.2109 0.78545 1.8436 0.78545 1.4836 0 2.7709-1.4509 2.7709-2.8036 0-0.75273-0.37091-1.1236-0.53454-1.2764-0.25091-0.25091-0.41454-0.29454-1.3854-0.54545-0.24-0.065454-0.63273-0.17454-0.73091-0.19636-0.29454-0.098182-0.66545-0.41454-0.66545-0.99273 0-0.88364 0.87273-1.8109 1.9091-1.8109 0.90545 0 1.5709 0.46909 1.5709 1.6909 0 0.34909-0.043636 0.54545-0.043636 0.61091 0 0.010909 0 0.10909 0.13091 0.10909 0.10909 0 0.12-0.032727 0.16364-0.21818l0.58909-2.3891z"/>
    <path id="e" d="m6.9273-6.3054c0.10909-0.44727 0.30545-0.77454 1.1782-0.80727 0.054545 0 0.18545-0.010909 0.18545-0.21818 0-0.010909 0-0.12-0.14182-0.12-0.36 0-0.74182 0.032727-1.1127 0.032727s-0.77454-0.032727-1.1346-0.032727c-0.065454 0-0.19636 0-0.19636 0.21818 0 0.12 0.10909 0.12 0.19636 0.12 0.62182 0.010909 0.74182 0.24 0.74182 0.48 0 0.032727-0.021818 0.19636-0.032727 0.22909l-0.98182 3.8945c-0.37091 1.4618-1.6254 2.4109-2.7164 2.4109-0.74182 0-1.3309-0.48-1.3309-1.4182 0-0.021818 0-0.37091 0.12-0.85091l1.0582-4.2436c0.098182-0.39273 0.12-0.50182 0.91636-0.50182 0.28364 0 0.37091 0 0.37091-0.21818 0-0.12-0.12-0.12-0.15273-0.12-0.30545 0-1.0909 0.032727-1.3964 0.032727-0.31636 0-1.0909-0.032727-1.4073-0.032727-0.087273 0-0.20727 0-0.20727 0.21818 0 0.12 0.098182 0.12 0.30545 0.12 0.021818 0 0.22909 0 0.41454 0.021818 0.19636 0.021818 0.29454 0.032727 0.29454 0.17454 0 0.065454-0.12 0.52364-0.18545 0.77454l-0.24 0.96c-0.098182 0.42545-0.62182 2.4873-0.66545 2.6945-0.076364 0.30545-0.076364 0.46909-0.076364 0.63273 0 1.3309 0.99273 2.0945 2.1382 2.0945 1.3746 0 2.7273-1.2327 3.0873-2.6727l0.97091-3.8727z"/>
    <path id="d" d="m7.8545-7.1891c0.010909-0.043636 0.032727-0.098182 0.032727-0.16364 0-0.098182-0.054545-0.098182-0.27273-0.098182h-4.6036c-0.26182 0-0.27273 0.010909-0.33818 0.21818l-0.6 1.9636c-0.021818 0.054545-0.032727 0.13091-0.032727 0.15273 0 0.010909 0 0.12 0.13091 0.12 0.098182 0 0.12-0.076364 0.14182-0.10909 0.41454-1.2873 0.98182-2.0073 2.6836-2.0073h1.7782l-6.0982 6.8182c0 0.010909-0.043636 0.16364-0.043636 0.19636 0 0.098182 0.076364 0.098182 0.27273 0.098182h4.7454c0.26182 0 0.27273-0.010909 0.33818-0.21818l0.77454-2.4109c0.010909-0.043636 0.043636-0.12 0.043636-0.16364 0-0.054545-0.043636-0.12-0.14182-0.12s-0.10909 0.043636-0.18545 0.27273c-0.48 1.4836-1.0036 2.2691-2.8582 2.2691h-1.8654l6.0982-6.8182z"/>
  </defs>
  <use x="1872.02" y="1498.05" xlink:href="#d"/>
  <use x="1883.25" y="1498.05" xlink:href="#a"/>
  <use x="1895.93" y="1490.67" xlink:href="#i"/>
  <use x="1904.08" y="1490.67" xlink:href="#e"/>
  <use x="1912.69" y="1490.67" xlink:href="#h"/>
  <use x="1923.66" y="1490.67" xlink:href="#k"/>
  <use x="1934.54" y="1490.67" xlink:href="#c"/>
  <use x="1939.97" y="1490.67" xlink:href="#j"/>
  <use x="1944.81" y="1490.67" xlink:href="#b"/>
  <rect x="1895.9" y="1495.1" width="54.488" height=".43635"/>
  <use x="1915.17" y="1505.53" xlink:href="#f"/>
  <use x="1922.47" y="1505.53" xlink:href="#g"/>
</svg>
