<?xml version="1.0" encoding="UTF-8"?>
<svg width="22.729pt" height="9.3486pt" version="1.1" viewBox="1872 1483.2 18.115 7.4509" xmlns="http://www.w3.org/2000/svg" xmlns:xlink="http://www.w3.org/1999/xlink">
  <defs>
    <path id="b" d="m3.3054-3.5454h1.0582c0.81818 0 0.90545 0.17454 0.90545 0.49091 0 0.076364 0 0.20727-0.076364 0.53454-0.021818 0.054545-0.032727 0.098182-0.032727 0.12 0 0.087273 0.065454 0.13091 0.13091 0.13091 0.10909 0 0.10909-0.032727 0.16364-0.22909l0.6-2.3673c0.032727-0.12 0.032727-0.14182 0.032727-0.17454 0-0.021818-0.021818-0.12-0.13091-0.12s-0.12 0.054545-0.16364 0.22909c-0.22909 0.85091-0.48 1.0473-1.4073 1.0473h-0.99273l0.69818-2.7709c0.098182-0.38182 0.10909-0.42545 0.58909-0.42545h1.44c1.3418 0 1.5927 0.36 1.5927 1.2 0 0.25091 0 0.29454-0.032727 0.58909-0.021818 0.14182-0.021818 0.16364-0.021818 0.19636 0 0.054545 0.032727 0.13091 0.13091 0.13091 0.12 0 0.13091-0.065454 0.15273-0.27273l0.21818-1.8873c0.032727-0.29454-0.021818-0.29454-0.29454-0.29454h-5.3454c-0.21818 0-0.32727 0-0.32727 0.21818 0 0.12 0.098182 0.12 0.30545 0.12 0.40364 0 0.70909 0 0.70909 0.19636 0 0.043636 0 0.065454-0.054545 0.26182l-1.44 5.7709c-0.10909 0.42545-0.13091 0.51273-0.99273 0.51273-0.18545 0-0.30545 0-0.30545 0.20727 0 0.13091 0.13091 0.13091 0.16364 0.13091 0.31636 0 1.1236-0.032727 1.44-0.032727 0.36 0 1.2654 0.032727 1.6254 0.032727 0.098182 0 0.22909 0 0.22909-0.20727 0-0.087273-0.065454-0.10909-0.065454-0.12-0.032727-0.010909-0.054545-0.010909-0.30545-0.010909-0.24 0-0.29454 0-0.56727-0.021818-0.31636-0.032727-0.34909-0.076364-0.34909-0.21818 0-0.021818 0-0.087273 0.043636-0.25091l0.67636-2.7164z"/>
    <path id="a" d="m8.2473-6.3054c0.10909-0.43636 0.30545-0.77454 1.1782-0.80727 0.054545 0 0.18545-0.010909 0.18545-0.21818 0-0.010909 0-0.12-0.14182-0.12-0.36 0-0.74182 0.032727-1.1018 0.032727-0.37091 0-0.75273-0.032727-1.1127-0.032727-0.065454 0-0.19636 0-0.19636 0.21818 0 0.12 0.10909 0.12 0.19636 0.12 0.62182 0.010909 0.74182 0.24 0.74182 0.48 0 0.032727-0.021818 0.19636-0.032727 0.22909l-1.2218 4.8545-2.4109-5.6945c-0.087273-0.19636-0.098182-0.20727-0.34909-0.20727h-1.4618c-0.21818 0-0.31636 0-0.31636 0.21818 0 0.12 0.098182 0.12 0.30545 0.12 0.054545 0 0.74182 0 0.74182 0.098182l-1.4618 5.8582c-0.10909 0.43636-0.29454 0.78545-1.1782 0.81818-0.065454 0-0.18545 0.010909-0.18545 0.21818 0 0.076364 0.054545 0.12 0.14182 0.12 0.34909 0 0.73091-0.032727 1.0909-0.032727 0.37091 0 0.76364 0.032727 1.1236 0.032727 0.054545 0 0.19636 0 0.19636-0.21818 0-0.10909-0.098182-0.12-0.21818-0.12-0.63273-0.021818-0.72-0.26182-0.72-0.48 0-0.076364 0.010909-0.13091 0.043636-0.25091l1.44-5.76c0.043636 0.065454 0.043636 0.087273 0.098182 0.19636l2.7164 6.4254c0.076364 0.18545 0.10909 0.20727 0.20727 0.20727 0.12 0 0.12-0.032727 0.17454-0.22909l1.5273-6.0764z"/>
  </defs>
  <use x="1872.02" y="1490.67" xlink:href="#b"/>
  <use x="1880.52" y="1490.67" xlink:href="#a"/>
</svg>
